<svg width="600" height="672" viewBox="0 0 600 672" fill="none" xmlns="http://www.w3.org/2000/svg">
<path d="M221.813 495.251C225.509 521.495 221.339 548.246 209.831 572.121C198.322 595.996 179.993 615.922 157.16 629.379C134.327 642.836 108.016 649.22 81.5545 647.723C55.0933 646.226 29.6701 636.916 8.50021 620.97C-12.6697 605.024 -28.6355 583.158 -37.378 558.138C-46.1205 533.118 -47.2471 506.067 -40.6153 480.407C-33.9835 454.746 -19.8912 431.629 -0.120526 413.978C19.6501 396.327 44.2111 384.935 70.4563 381.243C105.645 376.293 141.359 385.523 169.744 406.903C198.128 428.283 216.857 460.062 221.813 495.251Z" fill="url(#paint0_linear_366_185)"/>
<path d="M69.5739 381.267C34.3725 386.223 2.58139 404.959 -18.8058 433.354C-40.1929 461.749 -49.4242 497.477 -44.4688 532.678C-39.5134 567.88 -20.7773 599.671 7.61787 621.058C36.013 642.445 71.7411 651.677 106.943 646.721L69.5739 381.267Z" fill="url(#paint1_linear_366_185)"/>
<path style="mix-blend-mode:multiply" d="M181.498 583.493C215.294 538.625 206.319 474.854 161.45 441.058C116.582 407.261 52.8113 416.236 19.0146 461.105C-14.7821 505.973 -5.80663 569.744 39.0618 603.541C83.9303 637.337 147.701 628.362 181.498 583.493Z" fill="url(#paint2_radial_366_185)"/>
<path style="mix-blend-mode:multiply" d="M240.841 192.353C235.358 193.122 229.771 192.248 224.784 189.841C219.798 187.435 215.637 183.604 212.827 178.834C210.018 174.063 208.686 168.566 208.999 163.039C209.313 157.511 211.258 152.2 214.589 147.778C217.92 143.356 222.487 140.02 227.714 138.193C232.94 136.366 238.591 136.129 243.952 137.513C249.313 138.897 254.143 141.839 257.832 145.967C261.522 150.095 263.904 155.225 264.679 160.707C265.194 164.35 264.985 168.059 264.066 171.622C263.146 175.185 261.533 178.532 259.319 181.471C257.106 184.41 254.334 186.884 251.163 188.751C247.993 190.618 244.485 191.843 240.841 192.353V192.353Z" fill="url(#paint3_radial_366_185)"/>
<path d="M169.569 502.547C171.834 518.63 169.278 535.024 162.225 549.655C155.172 564.286 143.939 576.496 129.946 584.743C115.953 592.99 99.8293 596.902 83.6131 595.984C67.3969 595.067 51.8169 589.361 38.8434 579.589C25.8699 569.817 16.0856 556.417 10.7278 541.084C5.37006 525.751 4.67945 509.174 8.74334 493.448C12.8072 477.723 21.4431 463.556 33.5588 452.738C45.6746 441.921 60.726 434.939 76.8097 432.676C87.4882 431.173 98.3584 431.787 108.799 434.485C119.241 437.182 129.048 441.91 137.662 448.398C146.275 454.886 153.527 463.008 159.001 472.299C164.476 481.589 168.067 491.868 169.569 502.547Z" fill="url(#paint4_linear_366_185)"/>
<path d="M88.0918 512.836L76.8097 432.676C60.726 434.939 45.6746 441.921 33.5588 452.738C21.4431 463.556 12.8072 477.723 8.74334 493.448C4.67945 509.174 5.37006 525.751 10.7278 541.084C16.0856 556.417 25.8699 569.817 38.8434 579.589C51.8169 589.361 67.3969 595.067 83.6131 595.984C99.8293 596.902 115.953 592.99 129.946 584.743C143.939 576.496 155.172 564.286 162.225 549.655C169.278 535.024 171.834 518.63 169.569 502.547C169.516 502.168 169.433 501.78 169.372 501.396L88.0918 512.836Z" fill="url(#paint5_linear_366_185)"/>
<path d="M138.929 390.629L138.925 390.551C133.093 353.317 112.853 319.869 82.5745 297.428C52.2956 274.987 14.4064 265.353 -22.9139 270.606C-60.2343 275.859 -93.9924 295.577 -116.901 325.503C-139.809 355.43 -150.031 393.165 -145.358 430.562L-145.31 430.599L138.929 390.629Z" fill="url(#paint6_linear_366_185)"/>
<path d="M89.9645 397.528C88.3011 385.242 84.2266 373.406 77.9749 362.699C71.7233 351.993 63.4178 342.627 53.5357 335.141C43.6535 327.654 32.3894 322.194 20.3906 319.073C8.39171 315.953 -4.10543 315.234 -16.3829 316.959C-28.6603 318.683 -40.4761 322.816 -51.1513 329.121C-61.8265 335.425 -71.1509 343.777 -78.5886 353.696C-86.0263 363.615 -91.4308 374.906 -94.4915 386.92C-97.5523 398.935 -98.2091 411.435 -96.424 423.704V423.704L89.9645 397.528Z" fill="url(#paint7_linear_366_185)"/>
<path d="M-12.9545 335.942C-22.7542 337.321 -32.1864 340.616 -40.7124 345.64C-49.2385 350.664 -56.6913 357.319 -62.6454 365.223C-68.5995 373.128 -72.9382 382.128 -75.4136 391.709C-77.8891 401.291 -78.4529 411.266 -77.0728 421.066L-1.42056 410.382L42.2723 404.233L72.169 400.061C70.7905 390.261 67.4952 380.829 62.4712 372.303C57.4471 363.777 50.7928 356.324 42.8882 350.37C34.9835 344.416 25.9834 340.077 16.4019 337.602C6.82032 335.126 -3.15503 334.562 -12.9545 335.942V335.942Z" fill="url(#paint8_linear_366_185)"/>
<path d="M279.898 197.71C313.256 193.015 347.256 198.318 377.6 212.946C407.944 227.575 433.268 250.873 450.371 279.895C467.474 308.916 475.586 342.358 473.683 375.99C471.78 409.622 459.947 441.935 439.68 468.842C419.412 495.749 391.621 516.041 359.821 527.154C328.02 538.266 293.639 539.699 261.024 531.272C228.409 522.844 199.026 504.934 176.59 479.807C154.154 454.68 139.673 423.464 134.978 390.107C128.685 345.376 140.417 299.977 167.594 263.897C194.772 227.816 235.168 204.008 279.898 197.71V197.71Z" fill="url(#paint9_linear_366_185)"/>
<path d="M135.006 391.217C141.305 435.972 165.125 476.392 201.226 503.584C237.327 530.777 282.751 542.515 327.506 536.215C372.261 529.916 412.681 506.096 439.874 469.996C467.066 433.895 478.804 388.47 472.505 343.715L135.006 391.217Z" fill="url(#paint10_linear_366_185)"/>
<path d="M398.135 322.902C373.516 270.776 311.302 248.478 259.175 273.097C207.049 297.716 184.751 359.931 209.37 412.057C233.989 464.183 296.204 486.481 348.33 461.862C400.456 437.243 422.754 375.028 398.135 322.902Z" fill="url(#paint11_linear_366_185)"/>
<path d="M302.243 367.679L200.363 382.018C203.239 402.461 212.114 421.593 225.863 436.992C239.613 452.392 257.62 463.369 277.608 468.534C297.596 473.7 318.667 472.822 338.157 466.012C357.646 459.202 374.678 446.765 387.099 430.275C399.52 413.785 406.772 393.982 407.938 373.37C409.104 352.758 404.132 332.264 393.65 314.478C383.168 296.692 367.647 282.414 349.05 273.449C330.454 264.484 309.616 261.236 289.173 264.114C288.683 264.183 288.205 264.286 287.725 264.375L302.243 367.679Z" fill="url(#paint12_linear_366_185)"/>
<path d="M314.073 554.433C305.043 543.511 288.869 541.976 277.946 551.006C267.024 560.036 265.49 576.21 274.52 587.133C283.55 598.055 299.724 599.589 310.646 590.56C321.569 581.53 323.103 565.355 314.073 554.433Z" fill="url(#paint13_linear_366_185)"/>
<path style="mix-blend-mode:multiply" d="M251.008 637.741C245.525 638.509 239.938 637.633 234.953 635.226C229.968 632.819 225.808 628.988 222.999 624.218C220.19 619.447 218.859 613.951 219.173 608.424C219.486 602.897 221.432 597.587 224.762 593.165C228.093 588.743 232.66 585.408 237.886 583.581C243.111 581.754 248.761 581.516 254.122 582.899C259.482 584.282 264.312 587.223 268.002 591.35C271.692 595.477 274.075 600.605 274.851 606.087C275.367 609.731 275.159 613.442 274.24 617.006C273.32 620.57 271.707 623.918 269.493 626.858C267.278 629.798 264.506 632.273 261.334 634.14C258.162 636.008 254.653 637.231 251.008 637.741V637.741Z" fill="url(#paint14_radial_366_185)"/>
<path d="M256.912 585.475C260.969 588.529 264.029 592.717 265.706 597.509C267.382 602.302 267.6 607.484 266.331 612.401C265.062 617.317 262.364 621.747 258.577 625.129C254.791 628.512 250.086 630.696 245.058 631.404C240.03 632.113 234.905 631.315 230.331 629.11C225.757 626.906 221.94 623.395 219.361 619.021C216.783 614.647 215.56 609.606 215.846 604.537C216.133 599.467 217.916 594.597 220.971 590.541C222.998 587.848 225.536 585.581 228.439 583.869C231.342 582.156 234.555 581.033 237.892 580.563C241.23 580.092 244.627 580.284 247.891 581.127C251.154 581.97 254.22 583.448 256.912 585.475V585.475Z" fill="url(#paint15_linear_366_185)"/>
<path style="mix-blend-mode:overlay" d="M34.1991 405.375L68.9209 652.074L106.907 646.727L72.1848 400.029L34.1991 405.375Z" fill="url(#paint16_linear_366_185)"/>
<path style="mix-blend-mode:overlay" d="M-201.44 438.562L-193.113 497.728L574.403 389.704L566.075 330.537L-201.44 438.562Z" fill="url(#paint17_linear_366_185)"/>
<path style="mix-blend-mode:multiply" d="M312.755 412.943C301.002 414.604 289.02 412.743 278.325 407.593C267.63 402.443 258.703 394.237 252.674 384.012C246.644 373.788 243.782 362.004 244.451 350.153C245.12 338.302 249.289 326.916 256.43 317.434C263.572 307.953 273.366 300.803 284.572 296.889C295.778 292.975 307.893 292.473 319.385 295.446C330.877 298.42 341.228 304.735 349.13 313.592C357.032 322.45 362.128 333.453 363.775 345.208C365.982 360.954 361.847 376.932 352.281 389.633C342.715 402.333 328.499 410.717 312.755 412.943V412.943Z" fill="url(#paint18_radial_366_185)"/>
<path d="M250.82 374.916L356.607 360.027C354.632 345.999 347.166 333.33 335.85 324.806C324.535 316.283 310.297 312.604 296.269 314.578C282.24 316.553 269.571 324.019 261.048 335.335C252.524 346.65 248.845 360.888 250.82 374.916Z" fill="url(#paint19_linear_366_185)"/>
<path style="mix-blend-mode:multiply" d="M191.743 321.992C216.89 288.606 210.212 241.156 176.826 216.009C143.441 190.862 95.9906 197.54 70.8433 230.926C45.696 264.311 52.3744 311.761 85.7599 336.909C119.145 362.056 166.596 355.378 191.743 321.992Z" fill="url(#paint20_radial_366_185)"/>
<path d="M45.0525 277.664C42.994 263.027 45.322 248.108 51.7422 234.793C58.1624 221.479 68.3864 210.367 81.1214 202.863C93.8565 195.359 108.531 191.8 123.289 192.635C138.046 193.471 152.225 198.663 164.032 207.557C175.839 216.45 184.743 228.645 189.62 242.599C194.496 256.553 195.126 271.639 191.428 285.951C187.731 300.262 179.873 313.156 168.848 323.002C157.823 332.848 144.126 339.203 129.489 341.265C119.769 342.634 109.874 342.075 100.369 339.62C90.865 337.165 81.9374 332.861 74.0965 326.955C66.2556 321.049 59.655 313.656 54.6716 305.199C49.6881 296.741 46.4196 287.385 45.0525 277.664V277.664Z" fill="url(#paint21_linear_366_185)"/>
<path style="mix-blend-mode:overlay" d="M128.865 341.346L91.012 347.588L69.9536 197.968L108.037 193.314L128.865 341.346Z" fill="url(#paint22_linear_366_185)"/>
<path style="mix-blend-mode:multiply" d="M45.5628 275.657C43.5393 261.276 45.8257 246.618 52.1328 233.536C58.44 220.454 68.4846 209.537 80.9966 202.164C93.5085 194.79 107.926 191.293 122.426 192.114C136.925 192.934 150.856 198.036 162.456 206.774C174.056 215.511 182.805 227.493 187.596 241.202C192.387 254.912 193.005 269.735 189.372 283.796C185.739 297.857 178.018 310.525 167.185 320.198C156.352 329.871 142.895 336.115 128.514 338.139C118.964 339.484 109.244 338.934 99.9069 336.521C90.57 334.109 81.7998 329.881 74.097 324.079C66.3943 318.277 59.9097 311.014 55.0138 302.706C50.1179 294.398 46.9064 285.207 45.5628 275.657V275.657Z" fill="url(#paint23_radial_366_185)"/>
<path d="M178.702 258.711C176.451 242.72 167.94 228.278 155.041 218.562C142.142 208.846 125.912 204.652 109.921 206.902L118.529 268.058L123.493 303.385L126.889 327.514C134.809 326.399 142.432 323.734 149.322 319.673C156.212 315.612 162.235 310.233 167.046 303.844C171.858 297.455 175.363 290.181 177.363 282.437C179.363 274.693 179.818 266.631 178.702 258.711V258.711Z" fill="url(#paint24_linear_366_185)"/>
<defs>
<linearGradient id="paint0_linear_366_185" x1="-43.5576" y1="532.59" x2="221.807" y2="495.241" gradientUnits="userSpaceOnUse">
<stop stop-color="#9073FD"/>
<stop offset="0.68" stop-color="#E898B5"/>
<stop offset="0.97" stop-color="#E8ACC2"/>
<stop offset="1" stop-color="#E8ACC2"/>
</linearGradient>
<linearGradient id="paint1_linear_366_185" x1="-44.476" y1="532.669" x2="88.2459" y2="513.989" gradientUnits="userSpaceOnUse">
<stop stop-color="#9073FD"/>
<stop offset="0.68" stop-color="#C4A7FE"/>
<stop offset="0.97" stop-color="#DABDFF"/>
<stop offset="1" stop-color="#DABDFF"/>
</linearGradient>
<radialGradient id="paint2_radial_366_185" cx="0" cy="0" r="1" gradientUnits="userSpaceOnUse" gradientTransform="translate(100.261 522.294) rotate(81.9885) scale(101.71)">
<stop/>
<stop offset="0.99" stop-color="#FCFCFC" stop-opacity="0.01"/>
<stop offset="1" stop-color="white" stop-opacity="0"/>
</radialGradient>
<radialGradient id="paint3_radial_366_185" cx="0" cy="0" r="1" gradientUnits="userSpaceOnUse" gradientTransform="translate(12459 14731.2) rotate(81.9885) scale(1569.12 1569.12)">
<stop/>
<stop offset="0.99" stop-color="#FCFCFC" stop-opacity="0.01"/>
<stop offset="1" stop-color="white" stop-opacity="0"/>
</radialGradient>
<linearGradient id="paint4_linear_366_185" x1="-76470.3" y1="60250.6" x2="-60241.4" y2="38705.1" gradientUnits="userSpaceOnUse">
<stop stop-color="#9073FD"/>
<stop offset="0.68" stop-color="#C4A7FE"/>
<stop offset="0.97" stop-color="#DABDFF"/>
<stop offset="1" stop-color="#DABDFF"/>
</linearGradient>
<linearGradient id="paint5_linear_366_185" x1="6.93752" y1="525.433" x2="169.565" y2="502.544" gradientUnits="userSpaceOnUse">
<stop stop-color="#333E4E"/>
<stop offset="0.68" stop-color="#333E4E"/>
<stop offset="0.97" stop-color="#48576E"/>
<stop offset="1" stop-color="#48576E"/>
</linearGradient>
<linearGradient id="paint6_linear_366_185" x1="-153761" y1="94505.5" x2="-148886" y2="129141" gradientUnits="userSpaceOnUse">
<stop stop-color="#333E4E"/>
<stop offset="0.68" stop-color="#333E4E"/>
<stop offset="0.97" stop-color="#48576E"/>
<stop offset="1" stop-color="#48576E"/>
</linearGradient>
<linearGradient id="paint7_linear_366_185" x1="-100370" y1="70379.7" x2="-98257" y2="85389.8" gradientUnits="userSpaceOnUse">
<stop stop-color="#9073FD"/>
<stop offset="0.68" stop-color="#C4A7FE"/>
<stop offset="0.97" stop-color="#DABDFF"/>
<stop offset="1" stop-color="#DABDFF"/>
</linearGradient>
<linearGradient id="paint8_linear_366_185" x1="-43.3093" y1="446.448" x2="34.0876" y2="343.696" gradientUnits="userSpaceOnUse">
<stop stop-color="#E8ACC2"/>
<stop offset="0.03" stop-color="#E8ACC2"/>
<stop offset="0.32" stop-color="#E898B5"/>
<stop offset="1" stop-color="#9073FD"/>
</linearGradient>
<linearGradient id="paint9_linear_366_185" x1="118863" y1="-78608.3" x2="102691" y2="-193512" gradientUnits="userSpaceOnUse">
<stop stop-color="#E8ACC2"/>
<stop offset="0.03" stop-color="#E8ACC2"/>
<stop offset="0.32" stop-color="#E898B5"/>
<stop offset="1" stop-color="#9073FD"/>
</linearGradient>
<linearGradient id="paint10_linear_366_185" x1="327.456" y1="536.177" x2="303.712" y2="367.47" gradientUnits="userSpaceOnUse">
<stop stop-color="#DABDFF"/>
<stop offset="0.03" stop-color="#DABDFF"/>
<stop offset="0.32" stop-color="#C4A7FE"/>
<stop offset="1" stop-color="#9073FD"/>
</linearGradient>
<linearGradient id="paint11_linear_366_185" x1="71059.9" y1="-60885" x2="65200.3" y2="-103907" gradientUnits="userSpaceOnUse">
<stop stop-color="#9073FD"/>
<stop offset="0.68" stop-color="#E898B5"/>
<stop offset="0.97" stop-color="#E8ACC2"/>
<stop offset="1" stop-color="#E8ACC2"/>
</linearGradient>
<linearGradient id="paint12_linear_366_185" x1="60025.8" y1="-59883.4" x2="53951.5" y2="-103041" gradientUnits="userSpaceOnUse">
<stop stop-color="#333E4E"/>
<stop offset="0.68" stop-color="#333E4E"/>
<stop offset="0.97" stop-color="#48576E"/>
<stop offset="1" stop-color="#48576E"/>
</linearGradient>
<linearGradient id="paint13_linear_366_185" x1="20943.7" y1="-13677.6" x2="22528.6" y2="-15781.7" gradientUnits="userSpaceOnUse">
<stop stop-color="#333E4E"/>
<stop offset="0.68" stop-color="#333E4E"/>
<stop offset="0.97" stop-color="#48576E"/>
<stop offset="1" stop-color="#48576E"/>
</linearGradient>
<radialGradient id="paint14_radial_366_185" cx="0" cy="0" r="1" gradientUnits="userSpaceOnUse" gradientTransform="translate(12706.6 39365.3) rotate(81.9885) scale(1569.12 1569.12)">
<stop/>
<stop offset="0.99" stop-color="#FCFCFC" stop-opacity="0.01"/>
<stop offset="1" stop-color="white" stop-opacity="0"/>
</radialGradient>
<linearGradient id="paint15_linear_366_185" x1="21421.2" y1="9217.88" x2="23006.7" y2="7112.93" gradientUnits="userSpaceOnUse">
<stop stop-color="#333E4E"/>
<stop offset="0.68" stop-color="#333E4E"/>
<stop offset="0.97" stop-color="#48576E"/>
<stop offset="1" stop-color="#48576E"/>
</linearGradient>
<linearGradient id="paint16_linear_366_185" x1="89.9188" y1="523.394" x2="52.147" y2="528.711" gradientUnits="userSpaceOnUse">
<stop/>
<stop offset="0.12" stop-color="#474747" stop-opacity="0.72"/>
<stop offset="1" stop-color="white" stop-opacity="0"/>
</linearGradient>
<linearGradient id="paint17_linear_366_185" x1="621373" y1="-108170" x2="621869" y2="-104644" gradientUnits="userSpaceOnUse">
<stop/>
<stop offset="0.12" stop-color="#474747" stop-opacity="0.72"/>
<stop offset="1" stop-color="white" stop-opacity="0"/>
</linearGradient>
<radialGradient id="paint18_radial_366_185" cx="0" cy="0" r="1" gradientUnits="userSpaceOnUse" gradientTransform="translate(304.404 353.563) rotate(81.9885) scale(59.96)">
<stop/>
<stop offset="1" stop-color="white" stop-opacity="0"/>
</radialGradient>
<linearGradient id="paint19_linear_366_185" x1="303.712" y1="367.47" x2="295.373" y2="308.224" gradientUnits="userSpaceOnUse">
<stop stop-color="#DABDFF"/>
<stop offset="0.54" stop-color="#9073FD"/>
<stop offset="1" stop-color="#9073FD"/>
</linearGradient>
<radialGradient id="paint20_radial_366_185" cx="0" cy="0" r="1" gradientUnits="userSpaceOnUse" gradientTransform="translate(26806.6 -51708.7) rotate(-53.0115) scale(11454.9)">
<stop/>
<stop offset="0.99" stop-color="#FCFCFC" stop-opacity="0.01"/>
<stop offset="1" stop-color="white" stop-opacity="0"/>
</radialGradient>
<linearGradient id="paint21_linear_366_185" x1="-86842.8" y1="-69693.5" x2="-108970" y2="-66579.1" gradientUnits="userSpaceOnUse">
<stop stop-color="#9073FD"/>
<stop offset="0.68" stop-color="#E898B5"/>
<stop offset="0.97" stop-color="#E8ACC2"/>
<stop offset="1" stop-color="#E8ACC2"/>
</linearGradient>
<linearGradient id="paint22_linear_366_185" x1="26749.7" y1="-35978.8" x2="21707.4" y2="-35269.1" gradientUnits="userSpaceOnUse">
<stop/>
<stop offset="0.12" stop-color="#474747" stop-opacity="0.72"/>
<stop offset="1" stop-color="white" stop-opacity="0"/>
</linearGradient>
<radialGradient id="paint23_radial_366_185" cx="0" cy="0" r="1" gradientUnits="userSpaceOnUse" gradientTransform="translate(118.276 265.422) rotate(171.988) scale(73.44)">
<stop/>
<stop offset="0.85" stop-color="#8B8B8B" stop-opacity="0.46"/>
<stop offset="1" stop-color="white" stop-opacity="0"/>
</radialGradient>
<linearGradient id="paint24_linear_366_185" x1="2101.14" y1="-4224.29" x2="10733.3" y2="2277.8" gradientUnits="userSpaceOnUse">
<stop stop-color="#9073FD"/>
<stop offset="0.68" stop-color="#C4A7FE"/>
<stop offset="0.97" stop-color="#DABDFF"/>
<stop offset="1" stop-color="#DABDFF"/>
</linearGradient>
</defs>
</svg>
