<svg width="631" height="483" viewBox="0 0 631 483" fill="none" xmlns="http://www.w3.org/2000/svg">
<path d="M16.4116 474.193C15.1318 477.019 14.0178 479.907 13.0745 482.842C38.346 482.842 65.8423 482.842 88.457 482.842H320.948H630.393H630.926C630.926 332.976 630.951 183.11 631 33.2441C569.49 21.7505 505.773 47.2957 459.211 82.3319C437.929 98.3187 418.623 116.636 393.674 128.391C368.724 140.145 335.436 143.999 312.031 130.208C288.193 116.157 281.694 88.8612 260.936 71.8479C240.178 54.8347 208.665 50.1396 180.598 55.0198C152.275 59.9841 123.271 79.9002 114.409 103.148C112.31 108.775 111.375 114.71 111.651 120.65C112.506 141.685 126.167 160.019 139.294 177.352C149.287 190.554 169.907 199.515 173.033 215.939C174.871 225.809 169.162 235.822 160.769 243.032C152.376 250.243 141.593 255.149 131.039 260.046C100.696 274.069 70.8402 288.805 41.4716 304.253C21.2471 314.889 -8.76807 334.048 2.429 357.262C9.26859 371.465 29.3277 376.976 43.4022 384.97C51.014 389.294 57.9547 395.218 59.8576 402.639C62.0639 411.255 57.1641 419.964 51.7402 427.553C40.7914 442.96 25.0806 457.6 16.4116 474.193Z" fill="#D4CCFF"/>
<path d="M559.68 199.894H549.163C547.476 193.704 544.793 187.777 541.202 182.309L548.666 175.477C549.257 174.939 549.725 174.3 550.044 173.596C550.364 172.892 550.528 172.137 550.528 171.375C550.528 170.613 550.364 169.858 550.044 169.154C549.725 168.45 549.257 167.811 548.666 167.273L533.259 153.205C532.671 152.664 531.973 152.236 531.204 151.944C530.435 151.651 529.61 151.501 528.777 151.501C527.945 151.501 527.12 151.651 526.351 151.944C525.582 152.236 524.884 152.664 524.296 153.205L516.831 160.037C510.857 156.75 504.381 154.294 497.618 152.75V143.091C497.618 141.551 496.95 140.074 495.76 138.986C494.57 137.897 492.957 137.285 491.275 137.285H469.533C467.851 137.285 466.237 137.897 465.048 138.986C463.858 140.074 463.19 141.551 463.19 143.091V152.75C456.426 154.294 449.951 156.75 443.977 160.037L436.512 153.205C435.924 152.664 435.226 152.236 434.457 151.944C433.688 151.651 432.863 151.501 432.03 151.501C431.198 151.501 430.373 151.651 429.604 151.944C428.835 152.236 428.136 152.664 427.549 153.205L412.187 167.315C411.597 167.853 411.129 168.492 410.809 169.196C410.49 169.9 410.326 170.655 410.326 171.417C410.326 172.179 410.49 172.934 410.809 173.638C411.129 174.342 411.597 174.981 412.187 175.519L419.652 182.351C416.061 187.819 413.378 193.746 411.691 199.936H401.156C399.473 199.936 397.86 200.548 396.67 201.637C395.481 202.726 394.812 204.202 394.812 205.742V225.641C394.812 227.181 395.481 228.658 396.67 229.747C397.86 230.835 399.473 231.447 401.156 231.447H411.709C413.396 237.638 416.079 243.564 419.67 249.033L412.187 255.823C411.597 256.361 411.129 257 410.809 257.704C410.49 258.408 410.326 259.162 410.326 259.925C410.326 260.687 410.49 261.442 410.809 262.145C411.129 262.849 411.597 263.489 412.187 264.026L427.558 278.095C428.146 278.635 428.844 279.063 429.613 279.356C430.382 279.648 431.207 279.799 432.04 279.799C432.872 279.799 433.697 279.648 434.466 279.356C435.235 279.063 435.933 278.635 436.521 278.095L443.986 271.263C449.96 274.549 456.436 277.005 463.199 278.549V288.209C463.199 289.748 463.868 291.225 465.057 292.314C466.247 293.403 467.86 294.014 469.542 294.014H491.247C492.929 294.014 494.543 293.403 495.732 292.314C496.922 291.225 497.59 289.748 497.59 288.209V278.549C504.354 277.005 510.829 274.549 516.804 271.263L524.268 278.095C524.856 278.635 525.554 279.063 526.323 279.356C527.092 279.648 527.917 279.799 528.75 279.799C529.583 279.799 530.407 279.648 531.176 279.356C531.945 279.063 532.644 278.635 533.231 278.095L548.602 264.026C549.192 263.489 549.66 262.849 549.98 262.145C550.299 261.442 550.464 260.687 550.464 259.925C550.464 259.162 550.299 258.408 549.98 257.704C549.66 257 549.192 256.361 548.602 255.823L541.137 248.991C544.729 243.522 547.412 237.596 549.099 231.405H559.652C561.334 231.405 562.948 230.793 564.137 229.705C565.327 228.616 565.995 227.139 565.995 225.599V205.7C565.995 204.165 565.331 202.692 564.147 201.604C562.964 200.516 561.357 199.901 559.68 199.894ZM480.399 254.889C471.919 254.889 463.63 252.587 456.579 248.275C449.528 243.963 444.032 237.834 440.787 230.663C437.542 223.492 436.693 215.602 438.347 207.99C440.001 200.377 444.085 193.385 450.081 187.896C456.078 182.408 463.717 178.67 472.035 177.156C480.352 175.642 488.973 176.419 496.807 179.389C504.642 182.36 511.338 187.39 516.049 193.843C520.761 200.297 523.275 207.884 523.275 215.646C523.275 226.053 518.758 236.035 510.717 243.395C502.676 250.754 491.771 254.889 480.399 254.889Z" fill="#380F8F"/>
<path d="M193.176 267.315C192.501 265.498 191.8 263.722 191.07 261.989L193.176 267.315Z" fill="#F4D37E"/>
<path d="M190.996 277.538L191.042 261.888C187.831 254.325 183.813 247.071 179.045 240.23C174.633 244.513 173.198 257.807 173.198 257.807C173.612 244.075 175.221 239.969 175.377 235.476C168.887 227.735 158.986 223.537 151.154 218.926C154.288 235.249 154.059 239.363 154.059 239.363C153.02 229.586 149.526 222.83 147.761 217.024C127.822 206.271 117.498 209.09 117.498 209.09C117.7 215.981 120.155 231.277 120.899 237.176C127.272 241.94 133.986 246.308 140.995 250.251C134.946 248.476 127.031 244.185 121.414 240.87C122.692 249.401 122.582 248.005 124.972 254.753C133.356 261.77 150.381 269.797 150.381 269.797C143.027 268.156 132.676 263.066 127.04 260.096C131.507 270.697 138.049 280.463 146.346 288.914C152.231 291.249 158.242 293.31 164.355 295.09C159.417 294.651 154.542 293.741 149.811 292.372C159.124 301.299 170.091 309.2 182.217 318.136L194.48 322.697L198.332 305.927C200.106 292.566 197.532 279.204 193.267 267.475L190.996 277.538Z" fill="#F4D37E"/>
<path d="M181.287 293.811C183.603 297.799 185.819 301.855 187.805 306.028C189.866 310.206 191.491 314.553 192.659 319.011L192.438 319.07C191.145 314.681 189.397 310.415 187.216 306.331C185.111 302.242 182.776 298.287 180.349 294.391C175.504 286.591 170.283 279.036 165.034 271.497C159.784 263.958 154.324 256.536 149.405 248.779C146.933 244.883 144.524 240.953 142.244 236.931C139.964 232.91 137.822 228.82 135.91 224.613L136.103 224.504C140.985 232.312 146.068 239.935 151.226 247.533C156.383 255.131 161.384 262.847 166.477 270.512C171.57 278.177 176.608 285.851 181.287 293.811Z" fill="#FEF3F9"/>
<path d="M165.302 319.222C165.449 302.679 166.626 295.662 165.302 290.243C155.467 283.653 144.402 278.76 132.648 275.805C141.841 294.316 139.598 307.459 139.598 307.459C139.102 294.038 131.986 281.055 127.923 274.686C110.961 271.07 93.406 270.407 76.1758 272.734C78.7222 280.963 81.425 288.451 84.2932 295.283C96.6118 300.265 112.791 304.026 112.791 304.026C104.922 303.984 93.9642 301.56 86.1318 299.516C90.0261 308.411 94.8115 316.957 100.427 325.044C112.865 330.581 136.031 334.35 136.031 334.35C126.599 334.931 112.479 332.381 104.702 330.757C113.578 341.934 124.724 351.442 137.53 358.759C145.398 359.545 153.305 359.958 161.22 359.996C156.026 361.191 149.205 361.679 142.834 361.763C157.028 369.277 172.868 375.032 190.436 381.545L206.744 382.714L205.769 361.208C201.265 328.99 187.88 308.123 171.332 294.703C167.435 301.375 165.302 319.222 165.302 319.222Z" fill="#A796FF"/>
<path d="M203.121 379.079C200.108 374.261 196.576 369.731 192.576 365.558C188.678 361.351 184.542 357.421 180.322 353.576C171.883 345.869 163.067 338.591 154.223 331.329C145.379 324.068 136.352 317.025 127.812 309.369C123.546 305.54 119.326 301.645 115.245 297.589C111.163 293.533 107.201 289.36 103.496 284.968L103.689 284.774C112.183 292.482 120.852 299.92 129.595 307.248C138.338 314.577 146.933 322.15 155.63 329.613C164.326 337.076 172.958 344.607 181.25 352.558C185.369 356.555 189.395 360.669 193.201 365.003C197.086 369.333 200.494 374.003 203.378 378.945L203.121 379.079Z" fill="#7862EC"/>
<path d="M534.453 319.609C535.838 318.487 537.177 317.365 538.47 316.243L534.453 319.609Z" fill="#A796FF"/>
<path d="M524.425 320.922L538.472 316.168C544.136 311.119 549.188 305.525 553.539 299.483C548.097 297.102 535.65 299.971 535.65 299.971C548.116 296.117 552.381 296.201 556.472 294.922C561.068 287.114 561.216 277.539 562.503 269.579C549.007 277.202 545.229 278.263 545.229 278.263C553.622 274.4 558.412 269.402 562.981 266.146C565.371 246.154 559.092 238.38 559.092 238.38C552.979 240.652 540.154 247.391 535.135 249.823C533.19 256.676 531.734 263.638 530.778 270.665C530.171 265.061 531.145 257.118 532.074 251.396C524.885 255.082 526.098 254.56 520.914 258.632C517.678 267.804 516.666 284.523 516.666 284.523C515.453 277.833 516.262 267.627 516.878 261.998C508.884 269.122 502.485 277.604 498.041 286.971C498.041 295.385 499.053 303.942 499.053 303.942C497.651 299.699 496.694 295.343 496.194 290.934C491.597 301.469 488.444 313.08 484.877 325.962L485.245 337.632L501.691 335.722C514.313 333.114 525.363 326.862 534.326 319.736L524.425 320.922Z" fill="#A796FF"/>
<path d="M506.334 317.766C503.576 320.921 500.763 324.026 497.748 326.971C494.761 329.954 491.447 332.647 487.856 335.007L487.736 334.838C491.218 332.393 494.41 329.621 497.26 326.567C500.156 323.555 502.859 320.383 505.46 317.16C510.7 310.715 515.573 304.018 520.436 297.312C525.299 290.606 529.951 283.773 535.145 277.261C537.737 274.005 540.385 270.774 543.17 267.643C545.956 264.513 548.833 261.451 551.913 258.556L552.078 258.682C546.856 265.17 541.865 271.766 536.928 278.414C531.991 285.061 526.889 291.607 521.861 298.212C516.832 304.817 511.767 311.405 506.334 317.766Z" fill="#7862EC"/>
<path d="M511.776 292.81C511.163 293.882 510.489 294.947 509.753 296.008L511.776 292.81ZM509.689 296.1C505.093 302.966 498.74 309.563 490.43 313.963L479.297 318.599L476.245 310.421C475.693 300.593 475.142 291.758 475.886 283.386C477.294 286.404 479.011 289.292 481.016 292.011C481.016 292.011 478.258 286.121 476.245 280.231C477.15 272.72 479.648 265.444 483.599 258.809C484.519 262.907 486.357 270.286 488.83 274.796C488.83 274.796 485.548 262.772 485.649 255.637C488.343 251.724 487.608 252.338 491.818 248.291C492.526 252.498 493.73 258.338 495.495 262.183C494.512 257.025 493.898 251.814 493.657 246.583C496.626 243.857 504.081 236.486 507.869 233.693C507.869 233.693 514.166 237.942 517.246 252.557C514.791 255.771 512.594 260.265 507.584 264.674C507.584 264.674 510.002 263.167 517.696 255.081C518.689 260.971 520.859 267.778 519.48 274.215C516.887 275.898 513.854 276.739 505.957 281.922C505.957 281.922 514.074 277.404 518.487 278.001C516.852 283.142 514.618 288.107 511.822 292.81L503.015 298.986L509.689 296.1ZM495.78 283.429C497.747 277.749 499.807 272.095 501.7 266.407C503.594 260.719 505.562 255.056 507.703 249.427L507.556 249.368C506.076 252.036 504.798 254.77 503.548 257.547C502.298 260.323 501.222 263.125 500.165 265.961C498.042 271.607 496.378 277.379 494.539 283.084C492.701 288.788 490.862 294.51 488.692 300.114C487.617 302.916 486.468 305.701 485.135 308.41C483.849 311.142 482.253 313.742 480.373 316.168L480.501 316.252C482.483 313.87 484.184 311.304 485.576 308.595C487.01 305.911 488.269 303.151 489.455 300.366C491.772 294.745 493.785 289.066 495.78 283.429Z" fill="#FC8E53"/>
<path d="M520.546 352.946C532.497 356.497 537.286 358.743 541.543 358.987C548.695 353.63 554.797 347.196 559.588 339.963C543.96 342.327 535.034 338.053 535.034 338.053C544.88 340.518 555.93 338.423 561.491 337.01C568.059 326.286 572.595 314.622 574.904 302.512C568.359 302.512 562.31 302.773 556.683 303.286C551.963 308.835 547.637 314.656 543.731 320.712C545.569 315.411 549.89 308.519 553.199 303.639C545.792 304.425 538.485 305.87 531.384 307.956C524.49 315.2 516.381 330.051 516.381 330.051C518.146 323.555 523.276 314.561 526.255 309.655C515.906 313.425 506.434 318.962 498.345 325.97C494.741 333.543 491.974 341.73 491.974 341.73C492.513 337.388 493.501 333.103 494.925 328.932C486.192 336.942 478.378 346.433 469.552 356.926L464.873 367.662L480.685 371.49C505.092 375.176 523.322 370.489 536.891 362.117C532.993 358.104 520.546 352.946 520.546 352.946Z" fill="#F4D37E"/>
<path d="M468.412 365.979C472.64 364.936 476.74 363.498 480.648 361.688C484.583 359.921 488.407 357.961 492.176 355.908C499.714 351.827 507.041 347.392 514.35 342.941C521.658 338.49 528.847 333.863 536.413 329.698C540.182 327.619 543.979 325.583 547.867 323.673C551.756 321.763 555.69 319.971 559.735 318.381L559.836 318.557C552.28 322.68 544.898 326.972 537.543 331.347C530.189 335.722 522.724 339.938 515.296 344.254C507.868 348.57 500.413 352.82 492.728 356.757C488.876 358.701 484.969 360.561 480.951 362.21C476.955 363.917 472.778 365.245 468.486 366.173L468.412 365.979Z" fill="#FDEAB1"/>
<path d="M475.263 190.756C474.923 189.831 474.564 188.922 474.188 188.038L475.263 190.756Z" fill="#F4D37E"/>
<path d="M474.167 195.99V188.005C472.522 184.149 470.465 180.451 468.026 176.965C465.774 179.153 465.066 185.943 465.066 185.943C465.259 178.934 466.068 176.839 466.141 174.551C462.823 170.604 457.767 168.476 453.768 166.137C455.386 174.458 455.275 176.562 455.275 176.562C454.733 171.572 452.94 168.147 452.039 165.169C441.854 159.708 436.586 161.155 436.586 161.155C436.696 164.672 437.974 172.472 438.36 175.459C441.614 177.877 445.041 180.093 448.62 182.09C445.531 181.198 441.486 179.018 438.618 177.327C438.842 179.759 439.462 182.147 440.456 184.412C444.74 187.979 453.437 192.052 453.437 192.052C449.668 191.21 444.391 188.636 441.486 187.13C443.782 192.534 447.138 197.51 451.387 201.812C454.392 202.996 457.46 204.041 460.58 204.942C458.061 204.727 455.574 204.267 453.161 203.571C457.923 208.114 463.521 212.153 469.708 216.68L475.969 218.994L477.908 210.437C478.612 203.819 477.721 197.141 475.298 190.874L474.167 195.99Z" fill="#F4D37E"/>
<path d="M469.241 204.277C470.427 206.313 471.558 208.374 472.578 210.503C473.632 212.634 474.467 214.851 475.07 217.125H474.959C474.292 214.89 473.396 212.718 472.284 210.638C471.199 208.551 470.004 206.54 468.763 204.554C466.281 200.583 463.606 196.729 460.912 192.892C458.219 189.056 455.397 185.269 452.914 181.298C451.655 179.32 450.414 177.31 449.237 175.265C448.061 173.22 446.976 171.134 445.992 168.988L446.093 168.929C448.594 172.909 451.195 176.796 453.834 180.667C456.472 184.537 459.037 188.467 461.648 192.371C464.259 196.275 466.842 200.229 469.241 204.277Z" fill="#FEF3F9"/>
<path d="M475.408 215.165L478.166 205.64C482.698 193.331 489.005 184.555 496.892 179.557L497.223 179.346L497.288 179.708C497.483 181.878 497.44 184.059 497.159 186.221L497.545 184.462C497.914 182.347 498.489 180.266 499.264 178.244V178.168H499.338C503.139 176.194 507.371 175.016 511.73 174.719H512.226L511.96 175.106C510.132 177.71 508.648 180.503 507.538 183.427C509.079 180.313 511.017 177.376 513.311 174.677L513.384 174.592H513.504C519.512 174.527 525.446 175.809 530.787 178.328L530.989 178.438L530.888 178.623C529.178 181.93 527.45 185.001 525.731 187.761L525.685 187.845H525.584C522.795 188.449 519.957 188.846 517.098 189.031C519.542 189.269 522.006 189.283 524.453 189.073H524.931L524.683 189.452C522.472 192.933 519.957 196.245 517.163 199.355V199.406H517.089C513.761 200.34 508.816 200.415 506.196 200.382C509.089 200.901 512.036 201.132 514.984 201.072H515.563L515.168 201.459C511.264 205.408 506.53 208.596 501.25 210.832H501.176H501.112C499.057 210.558 497.019 210.184 495.008 209.713C496.344 210.305 497.727 210.806 499.145 211.211L499.797 211.404L499.163 211.64C493.932 213.567 488.278 214.694 482.294 215.889L481.135 216.116L475.408 215.165ZM496.855 180.121C489.207 185.127 483.066 193.751 478.653 205.767L476.024 214.803L481.181 215.645L482.101 215.468C487.586 214.518 492.983 213.181 498.244 211.471C496.399 210.943 494.637 210.196 493.004 209.25L491.68 208.409L493.215 208.829C495.772 209.508 498.377 210.028 501.011 210.386C506.033 208.257 510.552 205.251 514.313 201.534C511.555 201.534 507.014 201.349 504.146 200.323L502.702 199.809L504.247 199.885C504.329 199.885 512.18 200.264 516.777 198.993C519.436 196.03 521.84 192.882 523.966 189.578C521.208 189.755 517.595 189.814 515.113 189.157L513.633 188.762L515.177 188.703C518.582 188.553 521.965 188.13 525.289 187.441C526.944 184.774 528.617 181.803 530.272 178.614C525.094 176.224 519.368 174.995 513.568 175.03C510.23 178.93 507.734 183.376 506.214 188.131L505.727 188.047C505.727 187.988 506.462 182.207 511.242 175.148C507.16 175.484 503.202 176.611 499.632 178.455C498.885 180.428 498.328 182.458 497.968 184.521C497.591 186.204 497.122 188.333 496.469 190.983L495.982 190.899C496.065 190.874 497.232 183.511 496.855 180.121Z" fill="#8350FC"/>
<path d="M480.566 212.396L480.4 212.178L480.502 212.052C481.96 210.181 483.6 208.435 485.401 206.835C486.946 205.438 488.637 204.041 490.706 202.451C494.217 199.775 497.738 197.352 501.636 194.693C502.917 193.824 504.192 192.954 505.461 192.085C507.805 190.478 510.232 188.82 512.631 187.238C515.867 185.093 519.691 182.535 523.589 179.725L523.902 180.086C519.995 182.897 516.161 185.463 512.925 187.609C510.526 189.182 508.108 190.848 505.764 192.447L501.93 195.08C498.042 197.731 494.576 200.129 491.018 202.813C488.968 204.403 487.286 205.783 485.751 207.18C483.971 208.758 482.352 210.481 480.915 212.329L480.805 212.262L480.566 212.396Z" fill="#8350FC"/>
<path d="M206.688 204.404H471.134C474.984 204.404 478.676 205.803 481.398 208.295C484.12 210.786 485.65 214.166 485.65 217.689V373.4H192.182V217.681C192.184 214.16 193.713 210.784 196.433 208.295C199.153 205.805 202.842 204.406 206.688 204.404Z" fill="#380F8F"/>
<path d="M471.721 216.78H206.107V358.81H471.721V216.78Z" fill="#8550FC"/>
<path d="M539.492 415.075H138.328L192.181 373.391H485.649L539.492 415.075Z" fill="#A796FF"/>
<path d="M138.338 415.076H539.493V417.811C539.493 421.287 537.984 424.622 535.298 427.08C532.611 429.539 528.968 430.92 525.17 430.92H152.661C148.862 430.92 145.219 429.539 142.533 427.08C139.847 424.622 138.338 421.287 138.338 417.811V415.076Z" fill="#380F8F"/>
<path d="M230.387 384.667H214.143C214.032 384.665 213.925 384.632 213.834 384.574C213.743 384.516 213.672 384.435 213.632 384.34C213.592 384.246 213.583 384.142 213.607 384.043C213.631 383.944 213.686 383.853 213.766 383.783L218.832 379.391C218.938 379.304 219.075 379.256 219.218 379.256H234.763C234.868 379.259 234.97 379.289 235.057 379.343C235.145 379.396 235.214 379.471 235.257 379.559C235.3 379.646 235.316 379.743 235.301 379.839C235.287 379.934 235.244 380.024 235.177 380.098L230.828 384.49C230.775 384.548 230.707 384.595 230.63 384.626C230.554 384.656 230.471 384.67 230.387 384.667Z" fill="#FEF3F9"/>
<path d="M256.108 384.667H239.708C239.599 384.671 239.492 384.645 239.4 384.594C239.307 384.542 239.233 384.467 239.187 384.377C239.141 384.287 239.125 384.187 239.141 384.089C239.156 383.991 239.203 383.899 239.276 383.825L243.302 379.433C243.353 379.376 243.418 379.33 243.491 379.298C243.564 379.266 243.644 379.249 243.725 379.248H259.408C259.517 379.243 259.625 379.267 259.72 379.317C259.814 379.368 259.89 379.442 259.939 379.531C259.988 379.62 260.007 379.721 259.994 379.82C259.982 379.919 259.938 380.013 259.868 380.09L256.568 384.482C256.513 384.544 256.443 384.594 256.363 384.626C256.283 384.658 256.195 384.672 256.108 384.667Z" fill="#FEF3F9"/>
<path d="M281.814 384.666H265.266C265.167 384.668 265.068 384.645 264.982 384.6C264.895 384.555 264.824 384.489 264.775 384.41C264.726 384.33 264.701 384.24 264.703 384.149C264.706 384.058 264.735 383.969 264.788 383.892L267.767 379.5C267.816 379.424 267.887 379.362 267.97 379.32C268.054 379.277 268.149 379.255 268.245 379.256H284.048C284.142 379.254 284.234 379.275 284.317 379.316C284.4 379.357 284.47 379.416 284.521 379.488C284.571 379.561 284.601 379.644 284.607 379.73C284.612 379.816 284.594 379.902 284.553 379.979L282.319 384.397C282.272 384.481 282.199 384.551 282.109 384.599C282.02 384.647 281.917 384.67 281.814 384.666Z" fill="#FEF3F9"/>
<path d="M307.5 384.666H290.842C290.751 384.667 290.661 384.647 290.58 384.608C290.499 384.569 290.43 384.513 290.379 384.443C290.328 384.374 290.297 384.295 290.288 384.212C290.279 384.128 290.292 384.045 290.327 383.968L292.258 379.575C292.3 379.482 292.371 379.401 292.462 379.344C292.554 379.287 292.662 379.257 292.773 379.256H308.677C308.761 379.254 308.845 379.271 308.922 379.305C308.999 379.338 309.066 379.387 309.118 379.448C309.171 379.509 309.207 379.581 309.225 379.657C309.242 379.733 309.24 379.812 309.219 379.887L308.015 384.279C307.987 384.386 307.921 384.482 307.828 384.552C307.735 384.621 307.62 384.662 307.5 384.666Z" fill="#FEF3F9"/>
<path d="M333.129 384.666H316.481C316.399 384.667 316.318 384.652 316.244 384.621C316.169 384.59 316.103 384.544 316.05 384.487C315.997 384.43 315.959 384.363 315.938 384.29C315.917 384.218 315.914 384.142 315.929 384.069L316.849 379.676C316.87 379.559 316.937 379.452 317.036 379.375C317.135 379.298 317.261 379.256 317.391 379.256H333.35C333.426 379.254 333.501 379.267 333.571 379.294C333.64 379.32 333.704 379.36 333.756 379.409C333.809 379.459 333.85 379.518 333.876 379.583C333.903 379.648 333.915 379.717 333.911 379.786L333.755 384.178C333.751 384.248 333.732 384.318 333.698 384.381C333.665 384.444 333.617 384.501 333.558 384.547C333.5 384.592 333.431 384.627 333.357 384.647C333.284 384.668 333.206 384.674 333.129 384.666Z" fill="#FEF3F9"/>
<path d="M358.795 384.667H342.119C341.975 384.667 341.836 384.616 341.732 384.525C341.628 384.434 341.565 384.31 341.558 384.179L341.393 379.786C341.39 379.718 341.403 379.649 341.43 379.585C341.457 379.521 341.498 379.462 341.55 379.413C341.603 379.363 341.665 379.324 341.735 379.297C341.804 379.27 341.878 379.256 341.954 379.256H357.949C358.08 379.258 358.206 379.301 358.307 379.377C358.407 379.454 358.476 379.56 358.501 379.677L359.42 384.069C359.438 384.149 359.434 384.231 359.409 384.309C359.384 384.387 359.339 384.458 359.278 384.517C359.216 384.575 359.141 384.62 359.057 384.646C358.973 384.672 358.883 384.679 358.795 384.667Z" fill="#FEF3F9"/>
<path d="M384.408 384.666H367.778C367.653 384.666 367.532 384.627 367.434 384.557C367.336 384.487 367.266 384.389 367.235 384.279L366.031 379.887C366.01 379.812 366.008 379.733 366.025 379.657C366.043 379.581 366.079 379.509 366.132 379.448C366.184 379.387 366.251 379.338 366.328 379.305C366.405 379.271 366.489 379.254 366.574 379.256H382.477C382.588 379.255 382.697 379.286 382.789 379.343C382.881 379.4 382.952 379.481 382.992 379.575L384.932 383.968C384.965 384.045 384.977 384.129 384.966 384.212C384.955 384.295 384.923 384.374 384.871 384.443C384.82 384.512 384.75 384.568 384.67 384.607C384.589 384.646 384.499 384.666 384.408 384.666Z" fill="#FEF3F9"/>
<path d="M410.001 384.667H393.454C393.347 384.668 393.242 384.641 393.152 384.589C393.062 384.537 392.991 384.461 392.948 384.372L390.696 379.98C390.658 379.902 390.641 379.817 390.648 379.732C390.655 379.647 390.685 379.565 390.735 379.493C390.785 379.421 390.854 379.362 390.935 379.321C391.017 379.279 391.108 379.257 391.201 379.256H407.013C407.108 379.257 407.2 379.28 407.283 379.322C407.365 379.365 407.433 379.426 407.482 379.5L410.461 383.893C410.513 383.968 410.542 384.056 410.545 384.145C410.549 384.235 410.526 384.324 410.479 384.403C410.432 384.482 410.363 384.548 410.279 384.594C410.195 384.64 410.099 384.665 410.001 384.667Z" fill="#FEF3F9"/>
<path d="M435.576 384.666H419.166C419.076 384.668 418.986 384.649 418.906 384.61C418.826 384.572 418.757 384.516 418.706 384.448L415.406 380.055C415.336 379.978 415.291 379.884 415.279 379.784C415.267 379.684 415.287 379.582 415.337 379.493C415.387 379.403 415.464 379.329 415.56 379.279C415.656 379.23 415.765 379.207 415.875 379.214H431.503C431.584 379.213 431.665 379.23 431.738 379.262C431.811 379.294 431.875 379.341 431.926 379.399L435.952 383.791C436.034 383.86 436.091 383.95 436.115 384.049C436.14 384.148 436.131 384.252 436.091 384.347C436.05 384.441 435.979 384.522 435.887 384.579C435.795 384.636 435.687 384.667 435.576 384.666Z" fill="#FEF3F9"/>
<path d="M461.133 384.666H444.889C444.811 384.666 444.734 384.651 444.663 384.622C444.592 384.593 444.528 384.551 444.476 384.498L440.137 380.106C440.065 380.033 440.019 379.943 440.003 379.846C439.986 379.75 440.001 379.651 440.045 379.562C440.088 379.473 440.16 379.398 440.249 379.345C440.339 379.292 440.444 379.264 440.55 379.265H456.068C456.207 379.266 456.342 379.314 456.445 379.399L461.519 383.791C461.597 383.863 461.65 383.953 461.671 384.052C461.693 384.15 461.683 384.252 461.642 384.345C461.601 384.439 461.531 384.519 461.44 384.576C461.35 384.633 461.243 384.664 461.133 384.666Z" fill="#FEF3F9"/>
<path d="M222.278 392.878H204.674C204.562 392.878 204.453 392.847 204.361 392.789C204.268 392.732 204.197 392.65 204.155 392.555C204.114 392.46 204.104 392.356 204.128 392.256C204.151 392.156 204.207 392.065 204.288 391.994L210.318 386.769C210.422 386.684 210.556 386.636 210.695 386.635H227.408C227.515 386.634 227.619 386.662 227.709 386.715C227.799 386.768 227.87 386.843 227.914 386.932C227.957 387.021 227.972 387.12 227.956 387.217C227.939 387.313 227.893 387.403 227.822 387.476L222.664 392.701C222.564 392.802 222.427 392.865 222.278 392.878Z" fill="#FEF3F9"/>
<path d="M249.951 392.878H232.191C232.084 392.878 231.98 392.85 231.889 392.798C231.799 392.746 231.727 392.671 231.682 392.583C231.637 392.495 231.62 392.396 231.633 392.3C231.647 392.203 231.69 392.112 231.758 392.036L236.548 386.811C236.601 386.756 236.666 386.711 236.739 386.681C236.811 386.65 236.891 386.635 236.971 386.635H253.868C253.977 386.629 254.085 386.653 254.179 386.704C254.273 386.754 254.349 386.828 254.398 386.918C254.447 387.007 254.466 387.107 254.454 387.207C254.441 387.306 254.397 387.399 254.327 387.476L250.411 392.693C250.356 392.755 250.286 392.804 250.206 392.836C250.126 392.868 250.039 392.883 249.951 392.878Z" fill="#FEF3F9"/>
<path d="M277.613 392.878H259.714C259.615 392.877 259.518 392.851 259.434 392.804C259.349 392.758 259.279 392.691 259.231 392.611C259.184 392.532 259.16 392.442 259.162 392.352C259.165 392.261 259.194 392.173 259.246 392.095L262.785 386.87C262.835 386.798 262.905 386.739 262.987 386.698C263.068 386.657 263.16 386.635 263.254 386.635H280.288C280.381 386.636 280.473 386.658 280.554 386.699C280.636 386.74 280.705 386.8 280.755 386.871C280.805 386.943 280.835 387.025 280.842 387.11C280.848 387.195 280.832 387.281 280.794 387.358L278.119 392.583C278.073 392.671 278.001 392.744 277.912 392.796C277.822 392.848 277.719 392.877 277.613 392.878Z" fill="#FEF3F9"/>
<path d="M212.829 402.429H193.643C193.541 402.42 193.444 402.386 193.362 402.33C193.28 402.274 193.216 402.199 193.177 402.112C193.138 402.026 193.126 401.931 193.141 401.838C193.157 401.746 193.2 401.659 193.266 401.587L200.483 395.336C200.534 395.29 200.594 395.253 200.66 395.229C200.727 395.204 200.798 395.192 200.869 395.193H219.016C219.121 395.196 219.223 395.226 219.31 395.279C219.398 395.332 219.467 395.407 219.51 395.495C219.553 395.583 219.568 395.68 219.554 395.775C219.54 395.87 219.497 395.96 219.43 396.034L213.243 402.286C213.188 402.334 213.123 402.372 213.052 402.396C212.981 402.421 212.905 402.432 212.829 402.429Z" fill="#FEF3F9"/>
<path d="M242.781 402.429H223.476C223.369 402.43 223.265 402.402 223.175 402.35C223.085 402.297 223.013 402.223 222.967 402.134C222.922 402.046 222.905 401.948 222.919 401.851C222.932 401.754 222.975 401.663 223.044 401.588L228.78 395.336C228.83 395.278 228.895 395.231 228.968 395.199C229.041 395.167 229.122 395.151 229.203 395.151H247.515C247.624 395.146 247.733 395.17 247.827 395.22C247.921 395.271 247.997 395.345 248.046 395.434C248.095 395.524 248.114 395.624 248.102 395.723C248.089 395.822 248.045 395.916 247.975 395.993L243.277 402.253C243.216 402.316 243.139 402.366 243.053 402.396C242.966 402.427 242.873 402.438 242.781 402.429Z" fill="#FEF3F9"/>
<path d="M272.714 402.429H253.243C253.143 402.429 253.045 402.404 252.959 402.358C252.873 402.312 252.802 402.246 252.753 402.166C252.704 402.086 252.68 401.996 252.682 401.905C252.684 401.813 252.713 401.724 252.765 401.646L257.003 395.395C257.055 395.321 257.125 395.26 257.209 395.218C257.292 395.175 257.386 395.152 257.481 395.151H275.922C276.017 395.151 276.109 395.173 276.192 395.215C276.274 395.256 276.344 395.316 276.395 395.389C276.445 395.462 276.474 395.546 276.48 395.632C276.486 395.718 276.468 395.804 276.428 395.883L273.219 402.134C273.175 402.223 273.104 402.298 273.014 402.35C272.924 402.402 272.82 402.429 272.714 402.429Z" fill="#FEF3F9"/>
<path d="M305.246 392.879H287.255C287.164 392.878 287.074 392.857 286.993 392.817C286.913 392.777 286.844 392.72 286.793 392.65C286.743 392.581 286.711 392.501 286.702 392.417C286.693 392.334 286.706 392.25 286.741 392.172L289.002 386.922C289.043 386.827 289.114 386.746 289.206 386.689C289.297 386.632 289.406 386.602 289.517 386.602H306.643C306.728 386.601 306.812 386.618 306.889 386.651C306.966 386.684 307.033 386.734 307.085 386.795C307.138 386.856 307.174 386.927 307.192 387.003C307.209 387.079 307.207 387.158 307.186 387.233L305.752 392.458C305.73 392.57 305.668 392.671 305.577 392.747C305.486 392.823 305.369 392.87 305.246 392.879Z" fill="#FEF3F9"/>
<path d="M392.22 402.429H283.053C282.962 402.429 282.872 402.41 282.791 402.371C282.71 402.332 282.641 402.275 282.59 402.206C282.539 402.137 282.508 402.057 282.499 401.974C282.49 401.891 282.503 401.807 282.538 401.73L285.296 395.47C285.339 395.376 285.412 395.295 285.506 395.238C285.599 395.181 285.708 395.151 285.82 395.151H389.471C389.582 395.151 389.69 395.182 389.781 395.239C389.873 395.296 389.944 395.376 389.986 395.47L392.744 401.73C392.779 401.808 392.793 401.893 392.783 401.976C392.774 402.06 392.741 402.14 392.689 402.21C392.637 402.279 392.567 402.336 392.485 402.374C392.403 402.412 392.312 402.431 392.22 402.429Z" fill="#FEF3F9"/>
<path d="M332.863 392.878H314.826C314.744 392.878 314.663 392.861 314.589 392.829C314.514 392.798 314.448 392.751 314.396 392.693C314.343 392.635 314.305 392.568 314.284 392.495C314.263 392.422 314.26 392.346 314.275 392.272L315.332 387.047C315.356 386.931 315.423 386.826 315.522 386.751C315.621 386.676 315.746 386.635 315.874 386.635H333.056C333.131 386.635 333.204 386.648 333.273 386.675C333.341 386.701 333.404 386.739 333.456 386.788C333.508 386.836 333.549 386.894 333.577 386.957C333.604 387.021 333.618 387.088 333.617 387.156L333.424 392.381C333.419 392.515 333.358 392.641 333.253 392.734C333.149 392.826 333.009 392.878 332.863 392.878Z" fill="#FEF3F9"/>
<path d="M360.452 392.878H342.415C342.27 392.878 342.13 392.826 342.025 392.734C341.92 392.641 341.859 392.515 341.854 392.382L341.671 387.156C341.667 387.088 341.678 387.02 341.705 386.957C341.731 386.893 341.771 386.835 341.823 386.786C341.874 386.737 341.936 386.698 342.005 386.672C342.074 386.646 342.148 386.633 342.222 386.635H359.404C359.533 386.636 359.658 386.677 359.759 386.752C359.859 386.827 359.928 386.931 359.956 387.047L361.004 392.272C361.018 392.346 361.015 392.422 360.994 392.495C360.973 392.568 360.935 392.636 360.883 392.693C360.83 392.751 360.764 392.798 360.69 392.83C360.615 392.861 360.534 392.878 360.452 392.878Z" fill="#FEF3F9"/>
<path d="M388.02 392.878H370.029C369.905 392.878 369.784 392.839 369.685 392.769C369.587 392.699 369.517 392.601 369.487 392.491L368.062 387.266C368.042 387.191 368.042 387.113 368.06 387.037C368.078 386.962 368.115 386.891 368.167 386.831C368.219 386.77 368.285 386.721 368.361 386.687C368.437 386.653 368.52 386.635 368.604 386.635H385.731C385.842 386.634 385.95 386.665 386.042 386.722C386.134 386.779 386.205 386.86 386.246 386.954L388.544 392.171C388.579 392.249 388.592 392.334 388.582 392.418C388.572 392.502 388.54 392.583 388.488 392.653C388.437 392.723 388.367 392.78 388.285 392.819C388.203 392.858 388.112 392.879 388.02 392.878Z" fill="#FEF3F9"/>
<path d="M415.562 392.878H397.673C397.567 392.878 397.463 392.85 397.373 392.798C397.284 392.746 397.212 392.671 397.167 392.583L394.492 387.358C394.451 387.281 394.433 387.195 394.439 387.109C394.444 387.023 394.474 386.94 394.524 386.867C394.575 386.795 394.645 386.736 394.728 386.695C394.811 386.654 394.904 386.633 394.998 386.635H412.023C412.118 386.635 412.211 386.657 412.294 386.698C412.377 386.739 412.449 386.798 412.501 386.87L416.04 392.095C416.093 392.173 416.122 392.262 416.124 392.354C416.126 392.445 416.101 392.535 416.052 392.615C416.004 392.695 415.933 392.761 415.846 392.808C415.76 392.854 415.662 392.878 415.562 392.878Z" fill="#FEF3F9"/>
<path d="M443.087 392.878H425.326C425.235 392.878 425.146 392.856 425.066 392.817C424.986 392.777 424.917 392.72 424.867 392.651L420.951 387.435C420.881 387.358 420.837 387.264 420.824 387.165C420.811 387.066 420.831 386.965 420.88 386.876C420.928 386.787 421.004 386.712 421.099 386.662C421.193 386.612 421.301 386.588 421.41 386.593H438.307C438.388 386.594 438.469 386.61 438.543 386.64C438.618 386.67 438.684 386.715 438.739 386.77L443.519 391.995C443.603 392.068 443.661 392.163 443.683 392.268C443.705 392.372 443.692 392.48 443.645 392.577C443.597 392.673 443.518 392.755 443.418 392.809C443.319 392.863 443.203 392.887 443.087 392.878Z" fill="#FEF3F9"/>
<path d="M448.107 398.357H429.445C429.354 398.357 429.264 398.336 429.184 398.296C429.104 398.257 429.035 398.199 428.985 398.13L427.349 395.95C427.279 395.874 427.235 395.78 427.223 395.681C427.21 395.582 427.229 395.481 427.278 395.392C427.327 395.303 427.403 395.228 427.497 395.178C427.591 395.128 427.7 395.104 427.809 395.109H446.112C446.194 395.109 446.275 395.126 446.35 395.158C446.425 395.19 446.491 395.237 446.544 395.294L448.539 397.473C448.623 397.546 448.68 397.642 448.702 397.746C448.725 397.85 448.712 397.958 448.664 398.055C448.617 398.152 448.538 398.233 448.438 398.287C448.338 398.341 448.222 398.365 448.107 398.357Z" fill="#FEF3F9"/>
<path d="M451.847 402.429H432.542C432.452 402.429 432.363 402.409 432.283 402.371C432.203 402.333 432.134 402.278 432.082 402.21L430.244 399.77C430.187 399.693 430.155 399.604 430.149 399.511C430.144 399.419 430.166 399.327 430.213 399.245C430.26 399.163 430.331 399.094 430.417 399.046C430.503 398.998 430.602 398.972 430.703 398.971H449.641C449.722 398.97 449.802 398.986 449.876 399.018C449.949 399.051 450.013 399.098 450.064 399.156L452.298 401.587C452.367 401.664 452.411 401.756 452.424 401.855C452.436 401.953 452.418 402.053 452.37 402.142C452.323 402.231 452.248 402.305 452.155 402.356C452.062 402.407 451.955 402.432 451.847 402.429Z" fill="#FEF3F9"/>
<path d="M481.631 402.429H462.454C462.374 402.43 462.296 402.416 462.223 402.387C462.15 402.357 462.085 402.315 462.031 402.261L459.632 399.829C459.564 399.755 459.521 399.665 459.507 399.57C459.493 399.475 459.508 399.378 459.551 399.29C459.594 399.202 459.664 399.127 459.751 399.074C459.838 399.021 459.94 398.991 460.045 398.988H478.818C478.889 398.987 478.96 398.999 479.026 399.024C479.092 399.048 479.153 399.085 479.204 399.131L482.017 401.562C482.091 401.634 482.141 401.724 482.161 401.821C482.181 401.918 482.17 402.018 482.13 402.11C482.089 402.201 482.02 402.28 481.932 402.337C481.843 402.393 481.738 402.425 481.631 402.429Z" fill="#FEF3F9"/>
<path d="M422.044 402.429H402.564C402.458 402.43 402.353 402.402 402.263 402.35C402.174 402.298 402.102 402.223 402.058 402.134L400.817 399.703C400.777 399.625 400.759 399.538 400.765 399.452C400.771 399.366 400.8 399.283 400.85 399.21C400.901 399.137 400.971 399.077 401.053 399.035C401.136 398.993 401.228 398.971 401.323 398.971H420.389C420.485 398.971 420.579 398.993 420.663 399.036C420.746 399.078 420.817 399.14 420.867 399.215L422.513 401.646C422.565 401.724 422.593 401.812 422.596 401.903C422.598 401.993 422.575 402.083 422.527 402.162C422.479 402.242 422.409 402.309 422.325 402.355C422.24 402.402 422.143 402.427 422.044 402.429Z" fill="#FEF3F9"/>
<path d="M470.601 392.879H453.006C452.928 392.878 452.851 392.862 452.78 392.833C452.709 392.805 452.645 392.763 452.592 392.711L447.426 387.486C447.354 387.413 447.308 387.323 447.292 387.226C447.275 387.13 447.29 387.031 447.334 386.942C447.378 386.853 447.449 386.777 447.538 386.724C447.628 386.672 447.733 386.644 447.839 386.644H464.589C464.731 386.647 464.867 386.695 464.975 386.779L471.024 391.97C471.119 392.04 471.187 392.137 471.216 392.245C471.246 392.354 471.236 392.468 471.188 392.571C471.14 392.674 471.057 392.76 470.951 392.815C470.845 392.871 470.722 392.893 470.601 392.879Z" fill="#FEF3F9"/>
<path d="M71.3105 40.9508L100.903 78.1242L85.6884 87.5228L71.3105 40.9508Z" fill="#7B0F8F"/>
<path d="M71.3105 40.9508L91.9672 76.0796L85.6884 87.5228L71.3105 40.9508Z" fill="#DE50FC"/>
<path d="M71.3105 40.9508L116.669 79.0414L100.903 78.1242L71.3105 40.9508Z" fill="#D396FF"/>
<path d="M71.3105 40.9508L91.9672 76.0796L73.2043 73.7237L71.3105 40.9508Z" fill="#D396FF"/>
<path d="M203.213 195.922C203.139 195.89 203.073 195.844 203.02 195.787C202.036 194.845 201.08 193.844 200.179 192.809C200.051 192.659 199.993 192.469 200.017 192.28C200.041 192.091 200.146 191.918 200.308 191.799C200.47 191.682 200.676 191.629 200.881 191.651C201.086 191.674 201.273 191.769 201.402 191.917C202.321 192.918 203.24 193.886 204.16 194.803C204.306 194.937 204.388 195.118 204.388 195.308C204.388 195.497 204.306 195.678 204.16 195.813C204.038 195.925 203.879 195.997 203.707 196.017C203.535 196.037 203.361 196.003 203.213 195.922ZM197.017 188.61C196.904 188.548 196.807 188.465 196.732 188.366C195.67 186.826 194.697 185.237 193.818 183.604C193.726 183.433 193.712 183.236 193.78 183.056C193.847 182.876 193.99 182.728 194.176 182.645C194.363 182.561 194.578 182.548 194.774 182.61C194.971 182.671 195.133 182.802 195.224 182.973C196.078 184.56 197.023 186.105 198.056 187.6C198.165 187.761 198.2 187.955 198.154 188.14C198.107 188.324 197.983 188.484 197.807 188.585C197.692 188.657 197.558 188.7 197.418 188.707C197.279 188.715 197.14 188.687 197.017 188.627V188.61ZM191.786 178.993C191.626 178.91 191.502 178.779 191.437 178.623C190.738 176.94 190.104 175.257 189.543 173.465C189.484 173.282 189.508 173.085 189.608 172.918C189.708 172.75 189.876 172.626 190.076 172.573C190.276 172.519 190.491 172.541 190.674 172.632C190.856 172.724 190.992 172.878 191.05 173.061C191.593 174.744 192.218 176.485 192.889 178.109C192.936 178.198 192.962 178.295 192.967 178.394C192.971 178.493 192.954 178.591 192.915 178.683C192.876 178.776 192.817 178.86 192.742 178.93C192.666 179.001 192.575 179.056 192.475 179.094C192.361 179.126 192.24 179.136 192.12 179.121C192.001 179.107 191.887 179.069 191.786 179.01V178.993ZM188.504 168.669C188.404 168.62 188.316 168.552 188.248 168.469C188.18 168.386 188.132 168.291 188.109 168.189C187.713 166.456 187.373 164.655 187.088 162.838C187.069 162.742 187.071 162.643 187.094 162.548C187.118 162.453 187.162 162.363 187.225 162.284C187.288 162.206 187.368 162.139 187.46 162.09C187.552 162.04 187.654 162.008 187.759 161.996C187.864 161.977 187.972 161.978 188.077 161.999C188.182 162.02 188.28 162.061 188.367 162.118C188.453 162.176 188.525 162.25 188.579 162.334C188.633 162.419 188.667 162.513 188.679 162.611C188.954 164.394 189.285 166.161 189.681 167.861C189.721 168.046 189.68 168.239 189.567 168.396C189.453 168.554 189.276 168.664 189.074 168.702C188.889 168.765 188.684 168.759 188.504 168.686V168.669ZM136.021 133.237C134.293 132.337 132.583 131.403 130.947 130.452C130.771 130.351 130.647 130.191 130.6 130.007C130.554 129.822 130.589 129.628 130.698 129.467C130.812 129.308 130.988 129.195 131.191 129.153C131.393 129.111 131.606 129.142 131.783 129.24C133.401 130.174 135.093 131.1 136.793 131.992C136.884 132.037 136.963 132.099 137.027 132.173C137.091 132.247 137.138 132.332 137.165 132.423C137.193 132.514 137.2 132.609 137.187 132.703C137.173 132.796 137.14 132.886 137.088 132.968C137.037 133.05 136.969 133.121 136.888 133.179C136.807 133.237 136.714 133.28 136.615 133.305C136.516 133.33 136.413 133.337 136.311 133.325C136.209 133.313 136.11 133.284 136.021 133.237ZM141.188 135.803C140.999 135.715 140.856 135.562 140.79 135.377C140.725 135.193 140.742 134.992 140.838 134.819C140.935 134.646 141.102 134.515 141.304 134.455C141.505 134.395 141.725 134.411 141.914 134.499C143.624 135.341 145.389 136.106 147.163 136.863C147.256 136.903 147.34 136.959 147.409 137.029C147.478 137.098 147.532 137.179 147.567 137.267C147.602 137.356 147.617 137.449 147.613 137.543C147.608 137.637 147.583 137.729 147.54 137.814C147.497 137.899 147.435 137.976 147.359 138.039C147.284 138.103 147.195 138.152 147.099 138.184C147.002 138.216 146.9 138.23 146.797 138.226C146.695 138.222 146.594 138.199 146.501 138.159C144.709 137.394 142.925 136.594 141.197 135.778L141.188 135.803ZM186.868 158.059C186.752 158.001 186.655 157.917 186.584 157.816C186.513 157.714 186.472 157.598 186.463 157.478C186.316 155.703 186.215 153.877 186.178 152.068C186.199 151.89 186.291 151.726 186.436 151.607C186.581 151.488 186.769 151.422 186.964 151.422C187.159 151.422 187.347 151.488 187.492 151.607C187.637 151.726 187.729 151.89 187.75 152.068C187.75 153.86 187.879 155.652 188.026 157.402C188.039 157.592 187.97 157.78 187.834 157.924C187.699 158.069 187.507 158.159 187.3 158.176C187.147 158.173 186.998 158.132 186.868 158.059ZM126.074 127.515L126.001 127.473C124.364 126.422 122.765 125.336 121.239 124.251C121.145 124.197 121.064 124.126 121.001 124.042C120.939 123.958 120.897 123.863 120.877 123.763C120.857 123.664 120.861 123.561 120.888 123.462C120.914 123.364 120.963 123.271 121.031 123.191C121.099 123.111 121.185 123.045 121.283 122.997C121.381 122.949 121.488 122.921 121.599 122.914C121.71 122.907 121.821 122.921 121.925 122.955C122.029 122.99 122.124 123.044 122.204 123.115C123.703 124.192 125.284 125.26 126.902 126.295C127.071 126.404 127.186 126.569 127.222 126.755C127.258 126.941 127.212 127.133 127.095 127.288C126.982 127.431 126.816 127.531 126.628 127.57C126.44 127.609 126.243 127.583 126.074 127.499V127.515ZM151.815 140.381C151.633 140.295 151.495 140.148 151.43 139.971C151.365 139.794 151.379 139.601 151.467 139.433C151.556 139.264 151.714 139.135 151.906 139.071C152.098 139.008 152.309 139.016 152.495 139.093L154.609 139.893C155.703 140.296 156.816 140.683 157.919 141.045C158.02 141.074 158.113 141.121 158.193 141.183C158.274 141.245 158.339 141.322 158.387 141.408C158.434 141.495 158.461 141.589 158.468 141.685C158.474 141.781 158.459 141.878 158.424 141.968C158.389 142.059 158.333 142.143 158.262 142.214C158.19 142.284 158.104 142.341 158.008 142.381C157.912 142.42 157.808 142.442 157.703 142.444C157.597 142.445 157.493 142.428 157.395 142.392C156.273 142.03 155.133 141.634 154.021 141.222L151.879 140.381H151.815ZM162.846 143.965C162.685 143.888 162.559 143.761 162.49 143.607C162.421 143.453 162.414 143.282 162.469 143.124C162.496 143.032 162.542 142.946 162.605 142.871C162.668 142.796 162.747 142.734 162.837 142.687C162.927 142.64 163.026 142.609 163.128 142.598C163.231 142.586 163.335 142.593 163.435 142.619C165.273 143.09 167.204 143.502 169.098 143.847C169.199 143.864 169.296 143.9 169.382 143.952C169.468 144.003 169.542 144.07 169.6 144.149C169.657 144.227 169.697 144.315 169.716 144.408C169.736 144.501 169.735 144.596 169.713 144.689C169.694 144.781 169.654 144.869 169.597 144.947C169.54 145.025 169.467 145.093 169.382 145.145C169.296 145.197 169.2 145.234 169.1 145.252C168.999 145.271 168.895 145.271 168.794 145.252C166.864 144.907 164.924 144.487 163.012 144.007L162.846 143.965ZM116.826 120.868C116.774 120.842 116.724 120.811 116.679 120.776C115.171 119.556 113.719 118.31 112.358 117.057C112.212 116.922 112.13 116.739 112.131 116.549C112.132 116.359 112.216 116.177 112.363 116.043C112.511 115.909 112.71 115.834 112.918 115.835C113.126 115.836 113.324 115.912 113.471 116.047C114.804 117.275 116.229 118.504 117.718 119.699C117.802 119.754 117.873 119.824 117.927 119.904C117.982 119.985 118.018 120.074 118.035 120.167C118.052 120.261 118.048 120.356 118.024 120.448C118.001 120.541 117.958 120.627 117.897 120.704C117.837 120.781 117.761 120.846 117.673 120.896C117.585 120.946 117.487 120.979 117.385 120.994C117.283 121.01 117.179 121.006 117.078 120.985C116.978 120.963 116.883 120.924 116.799 120.868H116.826ZM108.552 113.237C108.469 113.193 108.394 113.136 108.332 113.068C107.026 111.68 105.795 110.241 104.655 108.802C104.594 108.726 104.551 108.64 104.527 108.548C104.503 108.457 104.499 108.362 104.515 108.269C104.532 108.176 104.568 108.087 104.622 108.006C104.675 107.926 104.746 107.856 104.829 107.801C104.913 107.746 105.007 107.706 105.107 107.684C105.207 107.663 105.311 107.659 105.412 107.674C105.514 107.689 105.611 107.722 105.699 107.771C105.787 107.82 105.863 107.885 105.923 107.961C107.026 109.366 108.24 110.771 109.518 112.168C109.652 112.314 109.718 112.502 109.702 112.693C109.687 112.883 109.591 113.06 109.435 113.186C109.309 113.271 109.158 113.321 109.002 113.33C108.845 113.339 108.689 113.307 108.552 113.237ZM174.439 146.052C174.301 145.983 174.188 145.879 174.116 145.751C174.044 145.624 174.015 145.479 174.034 145.336C174.046 145.243 174.077 145.153 174.127 145.071C174.177 144.99 174.244 144.918 174.324 144.86C174.404 144.802 174.497 144.759 174.595 144.734C174.694 144.709 174.797 144.702 174.898 144.714C176.829 144.916 178.778 145.059 180.699 145.126C180.802 145.129 180.903 145.151 180.996 145.19C181.089 145.229 181.174 145.285 181.244 145.353C181.314 145.422 181.368 145.503 181.404 145.591C181.44 145.679 181.457 145.773 181.453 145.867C181.449 145.96 181.426 146.053 181.383 146.138C181.34 146.224 181.28 146.301 181.205 146.365C181.129 146.429 181.041 146.479 180.945 146.512C180.849 146.545 180.747 146.56 180.644 146.556C178.677 146.489 176.682 146.346 174.714 146.136C174.616 146.111 174.523 146.071 174.439 146.018V146.052ZM186.647 147.322C186.519 147.258 186.412 147.163 186.339 147.048C186.266 146.932 186.229 146.8 186.233 146.666C186.238 146.607 186.238 146.548 186.233 146.489C186.095 146.438 185.976 146.351 185.891 146.239C185.806 146.127 185.759 145.995 185.755 145.858C185.748 145.7 185.798 145.544 185.898 145.414C185.997 145.285 186.141 145.189 186.307 145.143C186.38 143.822 186.491 142.518 186.629 141.247C186.649 141.058 186.752 140.883 186.913 140.762C187.074 140.642 187.281 140.585 187.488 140.604C187.695 140.622 187.886 140.716 188.018 140.864C188.15 141.011 188.212 141.201 188.191 141.39C188.063 142.585 187.962 143.805 187.879 145.05C189.359 144.966 190.839 144.84 192.301 144.68C192.403 144.668 192.506 144.675 192.605 144.7C192.705 144.725 192.797 144.768 192.879 144.826C192.96 144.883 193.028 144.955 193.078 145.037C193.129 145.119 193.162 145.209 193.174 145.303C193.198 145.491 193.139 145.68 193.012 145.83C192.885 145.979 192.699 146.077 192.494 146.102C190.94 146.279 189.368 146.405 187.805 146.489C187.801 146.565 187.801 146.641 187.805 146.716C187.796 146.907 187.704 147.086 187.551 147.215C187.398 147.345 187.195 147.413 186.987 147.406C186.866 147.39 186.75 147.35 186.647 147.289V147.322ZM101.704 104.545C101.58 104.482 101.478 104.389 101.41 104.276C100.395 102.713 99.474 101.101 98.6517 99.446C98.6088 99.3604 98.5848 99.2679 98.581 99.1738C98.5772 99.0796 98.5937 98.9857 98.6295 98.8974C98.6654 98.8092 98.7199 98.7282 98.79 98.6592C98.86 98.5902 98.9442 98.5345 99.0377 98.4952C99.1313 98.456 99.2324 98.434 99.3352 98.4306C99.4381 98.4271 99.5407 98.4422 99.6371 98.475C99.7336 98.5078 99.8221 98.5577 99.8975 98.6218C99.9729 98.6859 100.034 98.763 100.077 98.8486C100.875 100.459 101.768 102.03 102.752 103.552C102.804 103.634 102.839 103.724 102.853 103.818C102.867 103.912 102.861 104.007 102.834 104.099C102.808 104.19 102.762 104.276 102.698 104.351C102.635 104.427 102.557 104.49 102.467 104.537C102.348 104.593 102.215 104.621 102.082 104.616C101.948 104.612 101.818 104.576 101.704 104.511V104.545ZM96.8682 94.7341C96.6906 94.6488 96.5556 94.5042 96.4913 94.3303C95.8933 92.6018 95.4053 90.8432 95.0296 89.0631C94.994 88.8772 95.0382 88.6859 95.1529 88.5291C95.2677 88.3723 95.4442 88.2622 95.6456 88.2216C95.7464 88.2033 95.8501 88.2033 95.951 88.2217C96.0518 88.2401 96.1476 88.2766 96.233 88.3289C96.3184 88.3813 96.3916 88.4486 96.4486 88.5269C96.5055 88.6052 96.5451 88.6931 96.5649 88.7854C96.9427 90.5188 97.4338 92.23 98.0357 93.9096C98.0672 93.9991 98.0791 94.0934 98.0707 94.1871C98.0623 94.2808 98.0338 94.3721 97.9869 94.4557C97.9399 94.5393 97.8754 94.6136 97.797 94.6744C97.7186 94.7352 97.6279 94.7812 97.5301 94.8099C97.4208 94.8446 97.3043 94.8558 97.1895 94.8427C97.0747 94.8295 96.9648 94.7924 96.8682 94.7341ZM197.826 145.109C197.726 145.059 197.64 144.991 197.572 144.908C197.504 144.826 197.455 144.731 197.43 144.63C197.392 144.445 197.434 144.253 197.547 144.096C197.661 143.939 197.836 143.829 198.037 143.788C199.931 143.426 201.825 142.997 203.682 142.501C203.781 142.471 203.886 142.46 203.99 142.468C204.095 142.476 204.196 142.503 204.289 142.547C204.381 142.592 204.463 142.653 204.529 142.727C204.596 142.801 204.645 142.887 204.675 142.978C204.704 143.07 204.713 143.167 204.701 143.262C204.69 143.357 204.657 143.449 204.605 143.532C204.554 143.616 204.485 143.689 204.402 143.747C204.319 143.806 204.224 143.848 204.123 143.872C202.229 144.386 200.289 144.823 198.359 145.193C198.176 145.227 197.986 145.197 197.826 145.109ZM187.879 136.586C187.735 136.515 187.619 136.405 187.548 136.27C187.477 136.136 187.455 135.984 187.484 135.837C187.824 134.02 188.247 132.227 188.734 130.519C188.786 130.335 188.916 130.178 189.096 130.081C189.275 129.985 189.489 129.958 189.69 130.006C189.891 130.054 190.063 130.173 190.168 130.337C190.273 130.501 190.303 130.697 190.251 130.881C189.773 132.564 189.331 134.306 189.028 136.081C189.01 136.175 188.972 136.264 188.916 136.345C188.86 136.425 188.787 136.494 188.702 136.548C188.616 136.602 188.52 136.64 188.418 136.66C188.316 136.679 188.211 136.68 188.109 136.662C188.027 136.652 187.949 136.626 187.879 136.586ZM209.087 142.072C208.956 142.007 208.848 141.908 208.776 141.789C208.704 141.669 208.671 141.533 208.68 141.397C208.69 141.261 208.742 141.13 208.83 141.02C208.919 140.91 209.04 140.825 209.179 140.776C210.972 140.145 212.773 139.43 214.52 138.664C214.708 138.583 214.923 138.573 215.119 138.637C215.315 138.701 215.475 138.833 215.564 139.005C215.653 139.177 215.663 139.374 215.593 139.553C215.524 139.732 215.379 139.878 215.191 139.96C213.408 140.742 211.578 141.466 209.74 142.114C209.634 142.151 209.521 142.166 209.408 142.159C209.296 142.152 209.186 142.122 209.087 142.072ZM190.83 126.186C190.673 126.105 190.552 125.977 190.487 125.824C190.422 125.67 190.416 125.501 190.471 125.345C191.151 123.625 191.931 121.94 192.806 120.296C192.851 120.211 192.914 120.136 192.991 120.073C193.069 120.011 193.158 119.963 193.256 119.933C193.353 119.902 193.456 119.89 193.559 119.896C193.662 119.902 193.762 119.926 193.854 119.968C193.949 120.007 194.033 120.064 194.103 120.134C194.172 120.205 194.225 120.287 194.259 120.377C194.292 120.467 194.306 120.562 194.298 120.656C194.29 120.751 194.261 120.843 194.213 120.927C193.362 122.516 192.604 124.145 191.942 125.807C191.907 125.896 191.854 125.977 191.784 126.047C191.715 126.116 191.631 126.172 191.538 126.212C191.445 126.252 191.345 126.275 191.242 126.279C191.139 126.283 191.037 126.269 190.94 126.236L190.83 126.186ZM219.668 137.419C219.544 137.357 219.44 137.267 219.365 137.158C219.261 136.993 219.233 136.796 219.286 136.612C219.339 136.428 219.47 136.27 219.65 136.174C221.314 135.29 222.959 134.322 224.559 133.313C224.731 133.201 224.944 133.157 225.152 133.189C225.36 133.221 225.545 133.328 225.667 133.485C225.789 133.643 225.837 133.838 225.802 134.028C225.767 134.218 225.65 134.388 225.478 134.499C223.851 135.526 222.16 136.51 220.468 137.41C220.349 137.48 220.212 137.518 220.071 137.521C219.93 137.524 219.791 137.492 219.668 137.427V137.419ZM196.024 116.56H195.978C195.89 116.51 195.815 116.444 195.756 116.366C195.696 116.289 195.655 116.201 195.633 116.108C195.612 116.016 195.611 115.92 195.631 115.827C195.65 115.734 195.69 115.646 195.748 115.567L195.877 115.382C196.929 113.907 198.093 112.501 199.361 111.175C199.429 111.105 199.511 111.047 199.603 111.005C199.695 110.963 199.795 110.939 199.897 110.932C200 110.926 200.102 110.939 200.2 110.969C200.297 110.999 200.387 111.046 200.464 111.108C200.541 111.17 200.605 111.245 200.65 111.329C200.696 111.413 200.722 111.505 200.729 111.599C200.736 111.693 200.723 111.787 200.69 111.876C200.657 111.965 200.605 112.047 200.538 112.118C199.32 113.387 198.202 114.734 197.191 116.148L197.063 116.325C196.955 116.477 196.788 116.587 196.595 116.633C196.403 116.678 196.199 116.655 196.024 116.569V116.56ZM229.33 131.31C229.24 131.268 229.161 131.208 229.1 131.133C229.035 131.061 228.986 130.977 228.956 130.886C228.926 130.796 228.916 130.701 228.926 130.608C228.936 130.514 228.967 130.423 229.015 130.34C229.064 130.257 229.131 130.183 229.211 130.124C230.709 129.013 232.18 127.835 233.596 126.624C233.668 126.556 233.753 126.503 233.848 126.467C233.943 126.43 234.044 126.411 234.147 126.411C234.25 126.411 234.352 126.43 234.446 126.467C234.541 126.503 234.627 126.556 234.699 126.624C234.845 126.759 234.927 126.942 234.927 127.133C234.927 127.323 234.845 127.506 234.699 127.642C233.255 128.879 231.748 130.082 230.231 131.209C230.112 131.311 229.961 131.376 229.8 131.396C229.638 131.416 229.474 131.389 229.33 131.319V131.31ZM203.728 108.474C203.649 108.431 203.577 108.377 203.516 108.314C203.447 108.244 203.395 108.162 203.361 108.073C203.327 107.984 203.314 107.89 203.32 107.795C203.327 107.701 203.355 107.609 203.401 107.525C203.447 107.441 203.511 107.366 203.59 107.305C205.089 106.099 206.677 104.988 208.342 103.981C208.428 103.929 208.523 103.892 208.624 103.873C208.724 103.855 208.828 103.854 208.929 103.872C209.029 103.89 209.125 103.926 209.211 103.978C209.296 104.03 209.37 104.097 209.427 104.175C209.543 104.334 209.584 104.529 209.543 104.717C209.502 104.905 209.381 105.07 209.207 105.176C207.595 106.146 206.06 107.217 204.61 108.382C204.492 108.479 204.344 108.54 204.186 108.558C204.028 108.576 203.868 108.55 203.728 108.483V108.474ZM237.889 123.948C237.831 123.922 237.778 123.888 237.732 123.847C237.656 123.783 237.594 123.706 237.55 123.62C237.506 123.534 237.481 123.441 237.477 123.347C237.472 123.252 237.489 123.157 237.525 123.068C237.561 122.98 237.616 122.898 237.687 122.829L238.339 122.172C239.393 121.1 240.318 119.926 241.097 118.672C241.198 118.508 241.365 118.386 241.563 118.334C241.761 118.282 241.974 118.304 242.154 118.395C242.244 118.441 242.322 118.503 242.385 118.577C242.449 118.651 242.495 118.736 242.523 118.827C242.55 118.917 242.557 119.012 242.545 119.105C242.532 119.199 242.499 119.289 242.448 119.371C241.609 120.714 240.617 121.971 239.488 123.123L238.817 123.796C238.702 123.911 238.549 123.988 238.382 124.017C238.215 124.046 238.042 124.025 237.889 123.956V123.948ZM213.509 102.559C213.366 102.486 213.25 102.374 213.178 102.24C213.09 102.066 213.08 101.869 213.151 101.689C213.221 101.509 213.367 101.362 213.555 101.28C215.365 100.496 217.244 99.8516 219.172 99.3535C219.372 99.3021 219.586 99.3256 219.767 99.4187C219.948 99.5118 220.081 99.6669 220.137 99.8499C220.193 100.033 220.168 100.229 220.066 100.394C219.964 100.56 219.795 100.682 219.595 100.733C217.753 101.211 215.957 101.827 214.226 102.576C214.114 102.626 213.991 102.652 213.866 102.651C213.742 102.649 213.619 102.621 213.509 102.568V102.559ZM243.542 114.667C243.394 114.592 243.276 114.476 243.207 114.335C243.137 114.194 243.119 114.036 243.156 113.885C243.577 112.226 243.603 110.504 243.23 108.836C243.208 108.659 243.258 108.48 243.372 108.334C243.485 108.189 243.654 108.087 243.844 108.048C244.035 108.01 244.235 108.037 244.405 108.125C244.575 108.213 244.703 108.355 244.765 108.525C245.182 110.39 245.154 112.316 244.682 114.171C244.638 114.354 244.517 114.514 244.345 114.616C244.173 114.719 243.964 114.755 243.763 114.718L243.542 114.667ZM224.789 99.7321C224.673 99.6761 224.574 99.5944 224.502 99.4944C224.43 99.3944 224.386 99.2794 224.375 99.16C224.362 98.9698 224.431 98.7826 224.567 98.638C224.702 98.4935 224.894 98.403 225.101 98.3859C227.117 98.2483 229.143 98.3188 231.141 98.5962C231.245 98.6115 231.344 98.6455 231.433 98.6962C231.522 98.7469 231.599 98.8134 231.66 98.8917C231.721 98.97 231.764 99.0586 231.787 99.1524C231.81 99.2461 231.812 99.3431 231.794 99.4376C231.78 99.5335 231.744 99.6256 231.689 99.7084C231.635 99.7912 231.562 99.8628 231.476 99.9188C231.389 99.9748 231.292 100.014 231.188 100.034C231.085 100.054 230.978 100.054 230.875 100.035C228.995 99.7758 227.089 99.7109 225.193 99.8415C225.05 99.8465 224.909 99.8113 224.789 99.7405V99.7321ZM240.968 104.587C240.888 104.55 240.816 104.498 240.757 104.436C239.514 103.171 237.999 102.154 236.308 101.449C236.205 101.414 236.111 101.36 236.032 101.29C235.953 101.221 235.89 101.137 235.849 101.044C235.807 100.951 235.787 100.851 235.79 100.751C235.792 100.651 235.818 100.552 235.865 100.461C235.912 100.37 235.978 100.289 236.061 100.223C236.144 100.157 236.241 100.108 236.346 100.078C236.45 100.048 236.561 100.039 236.67 100.05C236.779 100.062 236.884 100.094 236.979 100.144C238.862 100.947 240.548 102.092 241.934 103.51C242.042 103.635 242.101 103.789 242.103 103.948C242.105 104.107 242.048 104.262 241.943 104.389C241.837 104.515 241.689 104.606 241.521 104.646C241.352 104.687 241.174 104.675 241.014 104.612L240.968 104.587Z" fill="#8550FC"/>
<path d="M525.318 103.199C520.235 103.199 518.221 105.126 518.221 109.266C518.221 109.644 517.431 109.644 517.431 109.266C517.431 105.126 515.822 103.199 510.334 103.199C509.92 103.199 509.92 102.476 510.334 102.476C515.987 102.476 517.431 100.078 517.431 96.4175C517.431 96.0389 518.221 96.0389 518.221 96.4175C518.221 100.776 520.152 102.476 525.318 102.476C525.732 102.476 525.732 103.199 525.318 103.199Z" fill="#FBF3FE"/>
<path d="M593.503 87.8773C582.738 87.8773 578.491 91.9497 578.491 100.709C578.491 101.55 576.818 101.55 576.818 100.709C576.818 91.9497 573.407 87.8773 561.797 87.8773C560.932 87.8773 560.932 86.3459 561.797 86.3459C573.747 86.3459 576.818 81.2975 576.818 73.5313C576.818 72.7319 578.491 72.7319 578.491 73.5313C578.491 82.7868 582.564 86.3459 593.503 86.3459C594.377 86.3459 594.377 87.8773 593.503 87.8773Z" fill="#FBF3FE"/>
<path d="M584.952 163.789C576.724 163.789 573.461 166.902 573.461 173.6C573.461 174.214 572.183 174.214 572.183 173.6C572.183 166.869 569.581 163.789 560.692 163.789C560.03 163.789 560.03 162.611 560.692 162.611C569.885 162.611 572.183 158.732 572.183 152.809C572.183 152.195 573.461 152.195 573.461 152.809C573.461 159.86 576.586 162.611 584.952 162.611C585.623 162.611 585.623 163.789 584.952 163.789Z" fill="#FBF3FE"/>
<path d="M335.611 110.787C351.037 97.3249 378.432 93.4376 398.675 140.068C410.985 168.441 425.454 157.738 434.804 173.809C441.349 185.042 434.932 199.362 438.812 211.361C444.594 229.232 470.068 228.425 469.149 261.004C468.073 300.971 263.538 314.787 218.557 269.073C200.382 250.613 224.422 237.647 233.33 225.556C240.776 215.459 228.016 205.463 228.467 189.005C228.917 172.547 260.56 158.234 264.742 149.122C270.516 136.543 265.717 110.417 297.424 102.887C316.471 98.3177 335.611 110.787 335.611 110.787Z" fill="#24223C"/>
<path d="M334.619 138.621C352.637 139.025 376.493 155.13 374.148 185.134C372.181 210.823 360.359 218.05 352.756 221.054L356.066 238.396L383.58 251.858L391.514 268.526L343.361 303.866L295.98 271.724L301.726 249.132L319.34 234.853L320.259 220.802C320.259 220.802 300.954 207.718 301.588 185.463C302.232 159.741 316.067 138.201 334.619 138.621Z" fill="#F4D37E"/>
<path d="M354.99 174.373C354.898 177.562 353.28 180.103 351.377 180.061C349.474 180.019 347.985 177.402 348.068 174.213C348.15 171.024 349.778 168.474 351.69 168.525C353.602 168.575 355.073 171.184 354.99 174.373Z" fill="#2D2D2D"/>
<path d="M327.863 173.759C327.78 176.939 326.162 179.489 324.25 179.447C322.338 179.405 320.857 176.788 320.949 173.599C321.041 170.41 322.65 167.86 324.562 167.911C326.474 167.961 327.945 170.57 327.863 173.759Z" fill="#2D2D2D"/>
<path d="M327.768 200.885C327.768 200.885 331.757 198.596 334.331 198.596C337.089 198.596 338.091 199.867 338.091 199.867C339.053 199.211 340.211 198.838 341.41 198.798C343.956 198.798 346.852 201.188 346.852 201.188C346.852 201.188 345.078 204.402 337.466 204.402C335.306 204.402 329.726 203.628 327.768 200.885Z" fill="#FC5B53"/>
<path d="M334.234 138.62C334.234 138.62 336.523 160.421 377.643 161.902L379.142 157.805C379.6 156.571 379.869 155.286 379.942 153.985C380.172 148.605 378.437 143.308 375.01 138.932C371.584 134.556 366.662 131.349 361.022 129.819L333.388 122.39L306.471 130.038C300.178 131.515 294.713 135.086 291.143 140.054C287.573 145.023 286.155 151.03 287.166 156.904C287.166 156.904 328.534 170.299 334.234 138.62Z" fill="#24223C"/>
<path d="M293.294 181.886C293.232 178.492 294.132 175.141 295.905 172.16C297.743 169.215 300.428 167.364 303.406 167.364C308.996 167.364 308.996 196.409 303.406 196.409C300.428 196.409 297.753 194.558 295.905 191.613C294.132 188.631 293.232 185.28 293.294 181.886Z" fill="#FC8E53"/>
<path d="M293.294 181.887C293.232 178.492 294.132 175.142 295.905 172.16C298.123 174.997 299.316 178.398 299.316 181.887C299.316 185.375 298.123 188.776 295.905 191.613C294.132 188.632 293.232 185.281 293.294 181.887Z" fill="white"/>
<path d="M296.879 181.053C297.123 179.763 297.142 178.445 296.935 177.149C295.927 170.94 295.999 164.625 297.146 158.436C299.996 142.836 308.876 130.905 319.384 126.69C306.247 127.901 294.195 141.322 290.794 159.993C289.448 167.185 289.575 174.543 291.171 181.693C291.952 185.058 296.162 185.008 296.787 181.558L296.879 181.053Z" fill="white"/>
<path d="M334.221 211.327H319.88C315.271 211.323 310.852 209.645 307.593 206.662C304.334 203.679 302.501 199.635 302.496 195.416H304.5C304.503 199.149 306.124 202.728 309.007 205.367C311.891 208.007 315.802 209.491 319.88 209.493H334.221V211.327Z" fill="#2D2D2D"/>
<path d="M342.783 210.41C342.783 212.017 340.135 213.321 336.871 213.321C333.608 213.321 330.951 212.017 330.951 210.41C330.951 208.803 333.599 207.507 336.871 207.507C340.144 207.507 342.783 208.803 342.783 210.41Z" fill="#2D2D2D"/>
<path d="M382.202 181.534C382.268 185.095 381.398 188.618 379.665 191.807C377.826 194.92 375.27 196.856 372.375 196.856C366.932 196.856 366.932 166.17 372.375 166.17C375.27 166.17 377.89 168.13 379.665 171.218C381.404 174.42 382.275 177.958 382.202 181.534Z" fill="#FC8E53"/>
<path d="M382.202 181.534C382.268 185.095 381.398 188.618 379.664 191.807C377.504 188.745 376.355 185.178 376.355 181.534C376.355 177.889 377.504 174.322 379.664 171.26C381.397 174.449 382.267 177.973 382.202 181.534Z" fill="white"/>
<path d="M378.175 181.878C378.046 180.613 378.193 179.338 378.607 178.125C380.537 172.622 383.709 169.787 383.102 163.417C381.65 148.07 370.085 132.142 357.932 126.69C373.642 129.618 386.43 144.115 388.213 162.483C388.917 169.543 387.815 176.655 384.996 183.258C384.713 183.934 384.188 184.504 383.507 184.873C382.826 185.243 382.029 185.391 381.244 185.294C380.459 185.196 379.734 184.859 379.185 184.337C378.636 183.814 378.296 183.138 378.221 182.416L378.175 181.878Z" fill="white"/>
<path d="M339.353 280.23C339.353 280.23 364.275 262.19 362.905 253.305C362.038 247.893 359.702 242.767 356.112 238.395L395.761 258.589C395.761 258.589 411.334 358.817 394.373 389.445L385.41 403.025C385.41 403.025 344.731 422.285 292.561 400.921L280.692 379.045L274.846 277.041C274.846 277.041 279.617 257.369 281.998 255.947C284.379 254.525 319.321 234.911 319.321 234.911C319.321 234.911 314.927 246.456 318.402 256.872C321.877 267.289 339.353 280.23 339.353 280.23Z" fill="#FCBD53"/>
<path d="M303.189 321.678C303.189 321.678 321.419 335.89 332.864 332.76C328.567 334.631 323.865 335.596 319.106 335.581C314.346 335.567 309.652 334.574 305.368 332.675C290.733 326.163 303.189 321.678 303.189 321.678Z" fill="#F3B246"/>
<path d="M311.506 336.343L314.806 357.109L316.939 390.664L318.713 408.713C318.713 408.713 303.894 407.122 301.247 404.312C298.599 401.502 311.506 336.343 311.506 336.343Z" fill="#F3B246"/>
<path d="M368.163 336.083L367.142 352.196L366.545 374.519L375.83 406.433C375.83 406.433 381.493 405.996 384.039 403.126C386.586 400.257 368.163 336.083 368.163 336.083Z" fill="#F3B246"/>
<path d="M379.039 323.394C379.039 323.394 360.064 336.764 348.803 333.12C352.994 335.184 357.639 336.359 362.393 336.56C367.147 336.761 371.89 335.982 376.271 334.282C391.238 328.434 379.039 323.394 379.039 323.394Z" fill="#F3B246"/>
<path d="M442.737 445.819C440.319 445.769 410.736 455.487 399.282 454.124C399.282 454.124 372.622 380.358 371.234 366.483C369.846 352.608 359.641 247.474 356.111 238.395C356.111 238.395 417.291 259.582 423.468 269.132C429.646 278.682 438.848 320.635 438.848 320.635L452.638 369.117C452.638 369.117 425.298 382.125 417.484 380.282C409.67 378.439 406.158 376.184 406.158 376.184L442.737 445.819Z" fill="#DE50FC"/>
<path d="M319.339 234.853C319.339 234.853 311.213 440.106 295.438 456L243.837 439.702L260.238 422.142L272.023 380.913C272.023 380.913 266.158 384.136 260.072 382.318C253.986 380.501 233.605 370.833 233.605 370.833L247.965 323.504C247.965 323.504 255.908 283.613 261.837 266.599C277.759 254.744 296.743 245.017 319.339 234.853Z" fill="#DE50FC"/>
<path d="M392.59 294.315C392.59 294.315 398.841 373.618 406.113 376.184C407.584 379.373 409.56 382.731 409.56 382.731L399.383 375.999L392.369 347.391L392.59 294.315Z" fill="#AD2FC4"/>
<path d="M280.196 291.775C280.196 291.775 283.239 371.002 275.838 373.232C274.193 376.353 272.051 379.618 272.051 379.618L282.568 373.333L284.186 350.615L280.196 291.775Z" fill="#AD2FC4"/>
<path d="M425.058 68.8693H419.652C419.474 68.8693 419.304 68.8046 419.178 68.6894C419.052 68.5742 418.981 68.4179 418.981 68.255C418.981 68.0921 419.052 67.9359 419.178 67.8207C419.304 67.7055 419.474 67.6408 419.652 67.6408H425.058C425.236 67.6408 425.407 67.7055 425.532 67.8207C425.658 67.9359 425.729 68.0921 425.729 68.255C425.729 68.4179 425.658 68.5742 425.532 68.6894C425.407 68.8046 425.236 68.8693 425.058 68.8693ZM414.339 68.8693H409.025C408.847 68.8693 408.677 68.8046 408.551 68.6894C408.425 68.5742 408.354 68.4179 408.354 68.255C408.354 68.0921 408.425 67.9359 408.551 67.8207C408.677 67.7055 408.847 67.6408 409.025 67.6408H414.339C414.517 67.6408 414.688 67.7055 414.813 67.8207C414.939 67.9359 415.01 68.0921 415.01 68.255C415.01 68.4179 414.939 68.5742 414.813 68.6894C414.688 68.8046 414.517 68.8693 414.339 68.8693ZM403.712 68.8693H398.398C398.22 68.8693 398.05 68.8046 397.924 68.6894C397.798 68.5742 397.727 68.4179 397.727 68.255C397.727 68.0921 397.798 67.9359 397.924 67.8207C398.05 67.7055 398.22 67.6408 398.398 67.6408H403.712C403.89 67.6408 404.06 67.7055 404.186 67.8207C404.312 67.9359 404.383 68.0921 404.383 68.255C404.383 68.4179 404.312 68.5742 404.186 68.6894C404.06 68.8046 403.89 68.8693 403.712 68.8693ZM393.085 68.8693H387.734C387.556 68.8693 387.386 68.8046 387.26 68.6894C387.134 68.5742 387.063 68.4179 387.063 68.255C387.063 68.0921 387.134 67.9359 387.26 67.8207C387.386 67.7055 387.556 67.6408 387.734 67.6408H393.048C393.226 67.6408 393.397 67.7055 393.522 67.8207C393.648 67.9359 393.719 68.0921 393.719 68.255C393.719 68.4179 393.648 68.5742 393.522 68.6894C393.397 68.8046 393.226 68.8693 393.048 68.8693H393.085ZM382.458 68.8693H377.144C376.966 68.8693 376.795 68.8046 376.669 68.6894C376.544 68.5742 376.473 68.4179 376.473 68.255C376.473 68.0921 376.544 67.9359 376.669 67.8207C376.795 67.7055 376.966 67.6408 377.144 67.6408H382.458C382.636 67.6408 382.806 67.7055 382.932 67.8207C383.058 67.9359 383.129 68.0921 383.129 68.255C383.129 68.4179 383.058 68.5742 382.932 68.6894C382.806 68.8046 382.636 68.8693 382.458 68.8693ZM371.83 68.8693H366.517C366.339 68.8693 366.168 68.8046 366.042 68.6894C365.917 68.5742 365.846 68.4179 365.846 68.255C365.846 68.0921 365.917 67.9359 366.042 67.8207C366.168 67.7055 366.339 67.6408 366.517 67.6408H371.83C372.008 67.6408 372.179 67.7055 372.305 67.8207C372.431 67.9359 372.502 68.0921 372.502 68.255C372.502 68.4179 372.431 68.5742 372.305 68.6894C372.179 68.8046 372.008 68.8693 371.83 68.8693ZM361.194 68.8693H355.881C355.703 68.8693 355.532 68.8046 355.406 68.6894C355.28 68.5742 355.21 68.4179 355.21 68.255C355.21 68.0921 355.28 67.9359 355.406 67.8207C355.532 67.7055 355.703 67.6408 355.881 67.6408H361.194C361.372 67.6408 361.543 67.7055 361.669 67.8207C361.795 67.9359 361.865 68.0921 361.865 68.255C361.865 68.4179 361.795 68.5742 361.669 68.6894C361.543 68.8046 361.372 68.8693 361.194 68.8693ZM350.567 68.8693H345.253C345.076 68.8693 344.905 68.8046 344.779 68.6894C344.653 68.5742 344.582 68.4179 344.582 68.255C344.582 68.0921 344.653 67.9359 344.779 67.8207C344.905 67.7055 345.076 67.6408 345.253 67.6408H350.567C350.745 67.6408 350.916 67.7055 351.042 67.8207C351.167 67.9359 351.238 68.0921 351.238 68.255C351.238 68.4179 351.167 68.5742 351.042 68.6894C350.916 68.8046 350.745 68.8693 350.567 68.8693ZM339.94 68.8693H337.007C336.19 68.8694 335.374 68.8273 334.562 68.7431C334.385 68.7261 334.223 68.6457 334.111 68.5195C333.999 68.3933 333.946 68.2317 333.964 68.0699C333.985 67.9075 334.075 67.7592 334.214 67.6568C334.354 67.5545 334.531 67.5064 334.709 67.523C335.472 67.6044 336.239 67.6438 337.007 67.6408H339.94C340.118 67.6408 340.289 67.7055 340.414 67.8207C340.54 67.9359 340.611 68.0921 340.611 68.255C340.611 68.4179 340.54 68.5742 340.414 68.6894C340.289 68.8046 340.118 68.8693 339.94 68.8693ZM430.307 68.2466C430.148 68.2415 429.996 68.1846 429.878 68.0862C429.76 67.9878 429.685 67.8542 429.665 67.7095C429.645 67.5647 429.682 67.4182 429.769 67.2961C429.857 67.1741 429.989 67.0845 430.142 67.0434C431.803 66.6465 433.403 66.0584 434.904 65.2933C434.98 65.2519 435.066 65.2251 435.154 65.2145C435.242 65.2039 435.332 65.2098 435.418 65.2318C435.504 65.2538 435.584 65.2915 435.654 65.3425C435.723 65.3936 435.781 65.457 435.823 65.5289C435.909 65.672 435.931 65.8404 435.882 65.9978C435.834 66.1553 435.72 66.289 435.565 66.3703C433.965 67.1802 432.26 67.8049 430.491 68.2298L430.307 68.2466ZM329.451 67.6324C329.369 67.634 329.287 67.6197 329.212 67.5903C327.503 66.9957 325.884 66.204 324.395 65.2344C324.316 65.1906 324.248 65.1326 324.195 65.0638C324.142 64.995 324.105 64.917 324.086 64.8345C324.068 64.7521 324.068 64.6671 324.086 64.5846C324.105 64.5022 324.142 64.4242 324.195 64.3554C324.248 64.2866 324.316 64.2285 324.395 64.1848C324.473 64.1411 324.561 64.1126 324.652 64.1011C324.743 64.0896 324.836 64.0954 324.924 64.1181C325.013 64.1408 325.095 64.18 325.167 64.2331C326.567 65.142 328.086 65.8855 329.69 66.446C329.773 66.4741 329.848 66.5169 329.913 66.5718C329.978 66.6268 330.03 66.6929 330.067 66.7664C330.103 66.8399 330.124 66.9193 330.127 67C330.13 67.0807 330.116 67.1612 330.085 67.2369C330.034 67.353 329.947 67.4525 329.834 67.5229C329.721 67.5933 329.587 67.6314 329.451 67.6324ZM439.472 63.6021C439.381 63.6014 439.291 63.5839 439.207 63.5506C439.124 63.5174 439.048 63.469 438.985 63.4085C438.866 63.2956 438.8 63.1448 438.8 62.9878C438.8 62.8309 438.866 62.68 438.985 62.5671C440.23 61.4834 441.323 60.2625 442.24 58.9322C442.335 58.7939 442.486 58.6958 442.66 58.6595C442.834 58.6232 443.017 58.6517 443.168 58.7387C443.319 58.8257 443.426 58.9642 443.466 59.1235C443.506 59.2829 443.475 59.4502 443.38 59.5885C442.403 61.0067 441.235 62.307 439.905 63.459C439.781 63.553 439.624 63.6037 439.463 63.6021H439.472ZM320.883 62.0707C320.785 62.0725 320.689 62.0545 320.6 62.0182C320.511 61.9818 320.432 61.9279 320.368 61.8603C319.182 60.5794 318.178 59.1658 317.38 57.6533C317.338 57.5802 317.312 57.5 317.305 57.4175C317.297 57.335 317.308 57.252 317.336 57.1734C317.365 57.0948 317.41 57.0223 317.47 56.9602C317.529 56.8981 317.602 56.8476 317.684 56.8119C317.764 56.7746 317.852 56.7525 317.943 56.7467C318.033 56.741 318.123 56.7517 318.209 56.7784C318.295 56.805 318.373 56.847 318.441 56.9019C318.509 56.9567 318.564 57.0234 318.603 57.098C319.352 58.511 320.295 59.8313 321.407 61.0273C321.514 61.1496 321.567 61.305 321.553 61.4614C321.539 61.6179 321.461 61.7637 321.333 61.8687C321.274 61.9295 321.202 61.9788 321.121 62.0134C321.041 62.0481 320.953 62.0676 320.864 62.0707H320.883ZM445.08 55.4572C445.013 55.4692 444.945 55.4692 444.878 55.4572C444.793 55.4334 444.715 55.3942 444.647 55.3421C444.579 55.29 444.523 55.226 444.483 55.1538C444.443 55.0816 444.419 55.0027 444.412 54.9219C444.406 54.8411 444.417 54.7599 444.446 54.6831C444.964 53.1878 445.273 51.6385 445.365 50.0722C445.377 49.9085 445.459 49.7556 445.593 49.6469C445.728 49.5382 445.903 49.4824 446.082 49.4916C446.17 49.4959 446.256 49.5161 446.335 49.5511C446.414 49.5862 446.485 49.6353 446.543 49.6956C446.601 49.7559 446.646 49.8262 446.674 49.9024C446.702 49.9787 446.714 50.0592 446.707 50.1395C446.604 51.8119 446.27 53.4657 445.715 55.0618C445.663 55.1812 445.573 55.2832 445.457 55.354C445.34 55.4248 445.202 55.4608 445.062 55.4572H445.08ZM316.277 53.421C316.124 53.4202 315.975 53.3713 315.857 53.2825C315.738 53.1937 315.656 53.0703 315.624 52.933C315.33 51.6178 315.182 50.2787 315.183 48.9363V47.9687C315.183 47.8058 315.254 47.6496 315.38 47.5344C315.506 47.4192 315.676 47.3545 315.854 47.3545C316.032 47.3545 316.203 47.4192 316.329 47.5344C316.455 47.6496 316.525 47.8058 316.525 47.9687V48.9363C316.524 50.194 316.663 51.4486 316.939 52.6806C316.975 52.8411 316.939 53.008 316.841 53.1451C316.743 53.2821 316.59 53.3782 316.415 53.4126L316.277 53.421ZM446.082 45.8483C445.994 45.8483 445.907 45.8325 445.825 45.8016C445.744 45.7707 445.67 45.7255 445.608 45.6684C445.545 45.6114 445.496 45.5437 445.462 45.4692C445.429 45.3946 445.411 45.3148 445.411 45.2341V40.3455C445.411 40.1826 445.482 40.0264 445.608 39.9112C445.734 39.796 445.904 39.7313 446.082 39.7313C446.26 39.7313 446.431 39.796 446.557 39.9112C446.683 40.0264 446.753 40.1826 446.753 40.3455V45.2089C446.753 45.291 446.735 45.3722 446.701 45.4479C446.666 45.5235 446.615 45.592 446.55 45.6492C446.486 45.7065 446.41 45.7514 446.326 45.7813C446.243 45.8111 446.154 45.8253 446.064 45.8231L446.082 45.8483ZM446.082 36.1217C445.904 36.1217 445.734 36.0569 445.608 35.9418C445.482 35.8266 445.411 35.6703 445.411 35.5074V30.6441C445.411 30.4812 445.482 30.325 445.608 30.2098C445.734 30.0946 445.904 30.0299 446.082 30.0299C446.26 30.0299 446.431 30.0946 446.557 30.2098C446.683 30.325 446.753 30.4812 446.753 30.6441V35.5074C446.746 35.6689 446.67 35.8212 446.541 35.9315C446.412 36.0417 446.24 36.101 446.064 36.0964L446.082 36.1217ZM446.082 26.395C445.904 26.395 445.734 26.3303 445.608 26.2151C445.482 26.0999 445.411 25.9437 445.411 25.7807V20.909C445.411 20.7461 445.482 20.5899 445.608 20.4747C445.734 20.3595 445.904 20.2948 446.082 20.2948C446.26 20.2948 446.431 20.3595 446.557 20.4747C446.683 20.5899 446.753 20.7461 446.753 20.909V25.7723C446.751 25.853 446.731 25.9325 446.695 26.0061C446.659 26.0798 446.608 26.1463 446.544 26.2018C446.48 26.2573 446.404 26.3007 446.322 26.3295C446.24 26.3583 446.152 26.372 446.064 26.3697L446.082 26.395ZM315.836 24.2746C315.658 24.2746 315.487 24.2099 315.361 24.0947C315.236 23.9795 315.165 23.8233 315.165 23.6604V19.9582C315.165 19.5543 315.165 19.1168 315.165 18.755C315.16 18.6691 315.176 18.5833 315.21 18.5031C315.244 18.4229 315.296 18.3502 315.362 18.2895C315.429 18.2289 315.509 18.1818 315.597 18.1512C315.684 18.1207 315.778 18.1073 315.872 18.1121C315.966 18.1168 316.058 18.1395 316.141 18.1788C316.225 18.218 316.299 18.2729 316.358 18.3398C316.417 18.4068 316.459 18.4843 316.484 18.5674C316.508 18.6505 316.513 18.7374 316.498 18.8223C316.498 19.2009 316.498 19.5796 316.498 19.9582V23.652C316.499 23.7327 316.483 23.8127 316.45 23.8877C316.418 23.9626 316.369 24.031 316.308 24.0888C316.246 24.1466 316.173 24.1928 316.092 24.2247C316.011 24.2565 315.924 24.2735 315.836 24.2746ZM445.632 16.702C445.477 16.7007 445.328 16.6506 445.209 16.5602C445.09 16.4697 445.009 16.3444 444.979 16.2055C444.63 14.6677 444.075 13.1754 443.324 11.7629C443.281 11.69 443.254 11.6097 443.246 11.5269C443.237 11.4442 443.248 11.3607 443.276 11.2818C443.305 11.2029 443.351 11.1302 443.411 11.0682C443.472 11.0062 443.545 10.9563 443.628 10.9215C443.708 10.8828 443.795 10.8592 443.885 10.8523C443.975 10.8453 444.066 10.8551 444.152 10.881C444.238 10.907 444.317 10.9485 444.385 11.0032C444.453 11.0578 444.508 11.1245 444.547 11.1991C445.349 12.7046 445.942 14.296 446.312 15.9363C446.331 16.0154 446.332 16.0971 446.316 16.1766C446.299 16.2561 446.266 16.3318 446.217 16.3993C446.168 16.4667 446.105 16.5245 446.031 16.5693C445.958 16.6141 445.875 16.6449 445.788 16.6599L445.632 16.702ZM316.856 14.6321C316.786 14.6403 316.715 14.6403 316.645 14.6321C316.477 14.5801 316.338 14.4701 316.257 14.3255C316.176 14.1809 316.16 14.0131 316.213 13.858C316.776 12.2627 317.558 10.7389 318.539 9.32281C318.639 9.19758 318.788 9.11199 318.955 9.08331C319.122 9.05464 319.295 9.08501 319.438 9.16829C319.582 9.25157 319.686 9.38157 319.728 9.53205C319.771 9.68254 319.75 9.8423 319.669 9.9791C318.756 11.2897 318.028 12.7004 317.5 14.1777C317.462 14.3075 317.378 14.4221 317.262 14.5042C317.146 14.5863 317.003 14.6312 316.856 14.6321ZM441.017 8.02704C440.919 8.02665 440.822 8.0069 440.733 7.96914C440.645 7.93138 440.566 7.87651 440.502 7.80827C439.389 6.61259 438.117 5.54969 436.715 4.64457C436.575 4.55016 436.48 4.41041 436.449 4.25397C436.418 4.09753 436.454 3.93624 436.549 3.80316C436.652 3.67491 436.806 3.58832 436.977 3.56164C437.149 3.53495 437.325 3.57026 437.468 3.66012C438.965 4.6233 440.324 5.75395 441.513 7.02576C441.62 7.14907 441.67 7.30503 441.655 7.46155C441.64 7.61806 441.559 7.76322 441.431 7.86717C441.319 7.96484 441.171 8.0217 441.017 8.02704ZM322.427 6.49567C322.337 6.49654 322.247 6.48059 322.163 6.44877C322.079 6.41696 322.003 6.36994 321.94 6.31056C321.825 6.19573 321.761 6.04562 321.761 5.88986C321.761 5.73409 321.825 5.58398 321.94 5.46915C323.274 4.32334 324.755 3.33149 326.353 2.51581C326.51 2.43744 326.695 2.41911 326.867 2.4648C327.039 2.51049 327.185 2.61651 327.272 2.75982C327.317 2.83012 327.347 2.90807 327.358 2.98899C327.37 3.06991 327.363 3.15212 327.339 3.2307C327.315 3.30928 327.274 3.38261 327.218 3.44628C327.162 3.50995 327.093 3.56265 327.015 3.60123C325.511 4.36489 324.119 5.29769 322.869 6.37788C322.754 6.45445 322.615 6.49569 322.473 6.49567H322.427ZM432.412 2.48215C432.333 2.49408 432.252 2.49408 432.173 2.48215C430.567 1.92498 428.889 1.55741 427.181 1.38832C427.003 1.37047 426.841 1.28863 426.728 1.16082C426.616 1.03301 426.564 0.869683 426.584 0.70678C426.603 0.543876 426.693 0.394741 426.832 0.292174C426.972 0.189608 427.151 0.142011 427.329 0.159863C429.149 0.345972 430.937 0.738854 432.651 1.32943C432.773 1.39433 432.869 1.492 432.927 1.60902C432.985 1.72604 433.002 1.85667 432.976 1.98298C432.95 2.10929 432.882 2.22509 432.781 2.31446C432.68 2.40384 432.551 2.46242 432.412 2.48215ZM331.666 1.84268C331.5 1.84719 331.338 1.79511 331.211 1.69653C331.085 1.59796 331.003 1.45989 330.981 1.30907C330.959 1.15825 330.999 1.00542 331.094 0.880162C331.188 0.754905 331.33 0.66614 331.492 0.631056C333.264 0.215001 335.086 0.00301058 336.915 0C337.093 0 337.264 0.0647146 337.39 0.179905C337.516 0.295095 337.587 0.451321 337.587 0.614224C337.588 0.694486 337.572 0.774175 337.539 0.848649C337.506 0.923124 337.458 0.990901 337.396 1.04805C337.334 1.1052 337.261 1.15058 337.18 1.18155C337.099 1.21252 337.012 1.22846 336.925 1.22846C335.206 1.22801 333.495 1.42877 331.832 1.82585L331.666 1.84268ZM421.951 1.22846H416.637C416.459 1.22846 416.288 1.16374 416.163 1.04855C416.037 0.933361 415.966 0.777128 415.966 0.614224C415.966 0.451321 416.037 0.295095 416.163 0.179905C416.288 0.0647146 416.459 1.94196e-08 416.637 0H421.951C422.039 -9.6156e-09 422.126 0.0158849 422.207 0.0467527C422.289 0.0776206 422.363 0.122868 422.425 0.179905C422.487 0.236941 422.537 0.304649 422.571 0.37917C422.604 0.453692 422.622 0.533563 422.622 0.614224C422.622 0.694886 422.604 0.774757 422.571 0.849279C422.537 0.9238 422.487 0.991514 422.425 1.04855C422.363 1.10559 422.289 1.15083 422.207 1.1817C422.126 1.21257 422.039 1.22846 421.951 1.22846ZM411.324 1.22846H406.01C405.832 1.22846 405.661 1.16374 405.535 1.04855C405.41 0.933361 405.339 0.777128 405.339 0.614224C405.339 0.451321 405.41 0.295095 405.535 0.179905C405.661 0.0647146 405.832 1.94196e-08 406.01 0H411.324C411.502 1.94196e-08 411.672 0.0647146 411.798 0.179905C411.924 0.295095 411.995 0.451321 411.995 0.614224C411.995 0.777128 411.924 0.933361 411.798 1.04855C411.672 1.16374 411.502 1.22846 411.324 1.22846ZM400.687 1.22846H395.374C395.196 1.22846 395.025 1.16374 394.899 1.04855C394.773 0.933361 394.703 0.777128 394.703 0.614224C394.703 0.451321 394.773 0.295095 394.899 0.179905C395.025 0.0647146 395.196 1.94196e-08 395.374 0H400.687C400.775 -9.6156e-09 400.863 0.0158849 400.944 0.0467527C401.025 0.0776206 401.099 0.122868 401.162 0.179905C401.224 0.236941 401.274 0.304649 401.307 0.37917C401.341 0.453692 401.358 0.533563 401.358 0.614224C401.358 0.694886 401.341 0.774757 401.307 0.849279C401.274 0.9238 401.224 0.991514 401.162 1.04855C401.099 1.10559 401.025 1.15083 400.944 1.1817C400.863 1.21257 400.775 1.22846 400.687 1.22846ZM390.06 1.22846H384.747C384.569 1.22846 384.398 1.16374 384.272 1.04855C384.146 0.933361 384.076 0.777128 384.076 0.614224C384.076 0.451321 384.146 0.295095 384.272 0.179905C384.398 0.0647146 384.569 1.94196e-08 384.747 0H390.06C390.238 1.94196e-08 390.409 0.0647146 390.535 0.179905C390.661 0.295095 390.731 0.451321 390.731 0.614224C390.731 0.777128 390.661 0.933361 390.535 1.04855C390.409 1.16374 390.238 1.22846 390.06 1.22846ZM379.433 1.22846H374.129C373.951 1.22846 373.78 1.16374 373.654 1.04855C373.528 0.933361 373.458 0.777128 373.458 0.614224C373.458 0.451321 373.528 0.295095 373.654 0.179905C373.78 0.0647146 373.951 1.94196e-08 374.129 0H379.442C379.53 -9.6156e-09 379.618 0.0158849 379.699 0.0467527C379.78 0.0776206 379.854 0.122868 379.917 0.179905C379.979 0.236941 380.029 0.304649 380.062 0.37917C380.096 0.453692 380.113 0.533563 380.113 0.614224C380.113 0.694886 380.096 0.774757 380.062 0.849279C380.029 0.9238 379.979 0.991514 379.917 1.04855C379.854 1.10559 379.78 1.15083 379.699 1.1817C379.618 1.21257 379.53 1.22846 379.442 1.22846H379.433ZM368.806 1.22846H363.465C363.287 1.22846 363.116 1.16374 362.99 1.04855C362.864 0.933361 362.794 0.777128 362.794 0.614224C362.794 0.451321 362.864 0.295095 362.99 0.179905C363.116 0.0647146 363.287 1.94196e-08 363.465 0H368.778C368.956 1.94196e-08 369.127 0.0647146 369.253 0.179905C369.379 0.295095 369.449 0.451321 369.449 0.614224C369.449 0.777128 369.379 0.933361 369.253 1.04855C369.127 1.16374 368.956 1.22846 368.778 1.22846H368.806ZM358.179 1.22846H352.865C352.687 1.22846 352.517 1.16374 352.391 1.04855C352.265 0.933361 352.194 0.777128 352.194 0.614224C352.194 0.451321 352.265 0.295095 352.391 0.179905C352.517 0.0647146 352.687 1.94196e-08 352.865 0H358.179C358.267 -9.6156e-09 358.354 0.0158849 358.436 0.0467527C358.517 0.0776206 358.591 0.122868 358.653 0.179905C358.716 0.236941 358.765 0.304649 358.799 0.37917C358.833 0.453692 358.85 0.533563 358.85 0.614224C358.85 0.694886 358.833 0.774757 358.799 0.849279C358.765 0.9238 358.716 0.991514 358.653 1.04855C358.591 1.10559 358.517 1.15083 358.436 1.1817C358.354 1.21257 358.267 1.22846 358.179 1.22846ZM347.552 1.22846H342.238C342.15 1.22846 342.063 1.21257 341.981 1.1817C341.9 1.15083 341.826 1.10559 341.764 1.04855C341.701 0.991514 341.652 0.9238 341.618 0.849279C341.584 0.774757 341.567 0.694886 341.567 0.614224C341.567 0.533563 341.584 0.453692 341.618 0.37917C341.652 0.304649 341.701 0.236941 341.764 0.179905C341.826 0.122868 341.9 0.0776206 341.981 0.0467527C342.063 0.0158849 342.15 -9.6156e-09 342.238 0H347.552C347.73 1.94196e-08 347.9 0.0647146 348.026 0.179905C348.152 0.295095 348.223 0.451321 348.223 0.614224C348.223 0.777128 348.152 0.933361 348.026 1.04855C347.9 1.16374 347.73 1.22846 347.552 1.22846Z" fill="#8550FC"/>
<path d="M311.488 29.3235C311.348 29.3239 311.211 29.289 311.092 29.2225C310.93 29.1258 310.815 28.9751 310.772 28.8023C310.73 28.6296 310.762 28.4483 310.862 28.2969L312.425 26.0167C312.476 25.9415 312.542 25.8762 312.621 25.8248C312.699 25.7734 312.788 25.7368 312.883 25.7172C312.977 25.6976 313.074 25.6954 313.169 25.7107C313.264 25.726 313.355 25.7586 313.437 25.8064C313.601 25.9016 313.717 26.0523 313.76 26.2258C313.803 26.3992 313.769 26.5811 313.666 26.7319L312.104 29.0121C312.038 29.1075 311.947 29.1862 311.839 29.2406C311.732 29.2951 311.611 29.3236 311.488 29.3235Z" fill="#8550FC"/>
<path d="M294.259 54.448C294.121 54.4482 293.986 54.4101 293.873 54.3386C293.79 54.2923 293.719 54.2314 293.663 54.1595C293.607 54.0876 293.567 54.0062 293.545 53.92C293.524 53.8339 293.522 53.7446 293.538 53.6576C293.555 53.5705 293.591 53.4874 293.643 53.4131L296.511 49.2061C296.558 49.124 296.624 49.0518 296.703 48.994C296.782 48.9361 296.873 48.8939 296.971 48.8699C297.069 48.8459 297.171 48.8406 297.272 48.8545C297.372 48.8684 297.468 48.901 297.553 48.9504C297.639 48.9998 297.713 49.0649 297.77 49.1416C297.827 49.2183 297.866 49.305 297.884 49.3961C297.903 49.4873 297.901 49.581 297.878 49.6713C297.855 49.7617 297.812 49.8468 297.752 49.9213L294.884 54.1283C294.818 54.2259 294.726 54.3066 294.617 54.3625C294.507 54.4185 294.384 54.4479 294.259 54.448ZM300.004 46.0339C299.865 46.0331 299.729 45.9983 299.609 45.933C299.446 45.8348 299.331 45.6826 299.288 45.5084C299.246 45.3342 299.278 45.1517 299.379 44.999L302.247 40.792C302.351 40.6402 302.516 40.5324 302.707 40.4921C302.897 40.4519 303.098 40.4826 303.263 40.5774C303.429 40.6723 303.547 40.8235 303.591 40.9979C303.635 41.1722 303.601 41.3554 303.498 41.5072L300.63 45.7142C300.569 45.8125 300.483 45.8955 300.378 45.9557C300.274 46.0159 300.155 46.0515 300.032 46.0592L300.004 46.0339ZM305.741 37.6199C305.604 37.6192 305.471 37.5843 305.355 37.5189C305.191 37.4237 305.074 37.2729 305.031 37.0995C304.988 36.9261 305.022 36.7441 305.125 36.5933L307.993 32.3863C308.104 32.2501 308.266 32.1571 308.448 32.1259C308.63 32.0947 308.819 32.1275 308.975 32.2179C309.132 32.3083 309.246 32.4495 309.294 32.6133C309.342 32.7771 309.321 32.9515 309.234 33.1015L306.366 37.3085C306.307 37.4151 306.218 37.5052 306.108 37.5689C305.998 37.6327 305.871 37.6677 305.741 37.6703V37.6199Z" fill="#8550FC"/>
<path d="M287.412 62.5246L290.768 57.6108C290.859 57.4772 291 57.3775 291.164 57.329C291.328 57.2804 291.505 57.2863 291.665 57.3454C291.825 57.4046 291.957 57.5133 292.039 57.6525C292.12 57.7917 292.145 57.9527 292.11 58.1072C292.277 58.0723 292.452 58.0919 292.604 58.1624C292.757 58.233 292.878 58.3501 292.947 58.4937C293.016 58.6372 293.027 58.7982 292.98 58.9488C292.933 59.0994 292.83 59.2303 292.689 59.3188L287.412 62.5246Z" fill="#8550FC"/>
<path d="M296.357 56.9549C296.197 56.9573 296.041 56.9122 295.912 56.8263C295.783 56.7404 295.688 56.6185 295.642 56.4789C295.595 56.3393 295.599 56.1896 295.653 56.0524C295.708 55.9152 295.809 55.7978 295.943 55.7181L300.034 53.1938C300.198 53.0975 300.397 53.0638 300.587 53.1C300.778 53.1362 300.946 53.2394 301.054 53.3874C301.107 53.4607 301.144 53.5429 301.162 53.6293C301.18 53.7157 301.18 53.8045 301.16 53.8906C301.14 53.9766 301.102 54.0583 301.048 54.1308C300.993 54.2033 300.924 54.2652 300.843 54.3129L296.761 56.7951C296.647 56.884 296.506 56.9397 296.357 56.9549ZM304.529 51.9906C304.408 51.9894 304.288 51.9612 304.181 51.9085C304.073 51.8557 303.982 51.78 303.913 51.6877C303.86 51.6144 303.824 51.5322 303.806 51.4458C303.787 51.3594 303.788 51.2706 303.808 51.1845C303.828 51.0985 303.866 51.0168 303.92 50.9443C303.975 50.8718 304.044 50.8099 304.125 50.7622L308.207 48.238C308.286 48.1877 308.376 48.1525 308.471 48.1346C308.566 48.1166 308.664 48.1163 308.759 48.1335C308.855 48.1508 308.945 48.1853 309.025 48.235C309.105 48.2847 309.174 48.3487 309.227 48.4231C309.28 48.497 309.317 48.5799 309.335 48.667C309.354 48.754 309.353 48.8435 309.333 48.9302C309.314 49.017 309.275 49.0994 309.221 49.1726C309.166 49.2459 309.097 49.3085 309.016 49.357L304.934 51.8813C304.819 51.95 304.685 51.9879 304.548 51.9906H304.529Z" fill="#8550FC"/>
<path d="M312.719 46.9923C312.56 46.9963 312.403 46.9522 312.274 46.8668C312.145 46.7814 312.05 46.6594 312.004 46.5196C311.958 46.3799 311.963 46.2301 312.019 46.0935C312.075 45.9569 312.179 45.8411 312.315 45.7638L314.76 44.2745C314.841 44.2259 314.931 44.1923 315.026 44.1757C315.121 44.1592 315.219 44.1599 315.314 44.1778C315.409 44.1958 315.499 44.2307 315.579 44.2805C315.659 44.3303 315.727 44.394 315.78 44.468C315.833 44.5421 315.87 44.625 315.888 44.712C315.906 44.799 315.906 44.8884 315.886 44.9751C315.866 45.0618 315.828 45.1442 315.774 45.2174C315.719 45.2907 315.65 45.3534 315.569 45.402L313.124 46.8829C313.003 46.9547 312.863 46.9927 312.719 46.9923Z" fill="#8550FC"/>
<path d="M439.766 10.8119H353.444C347.942 10.8141 342.666 12.8156 338.775 16.3766C334.885 19.9375 332.698 24.7665 332.695 29.8025V58.2505C332.698 63.2864 334.885 68.1155 338.775 71.6764C342.666 75.2373 347.942 77.2388 353.444 77.2411H409.613L400.42 91.9152L427.034 77.2411H439.766C442.491 77.2411 445.189 76.7499 447.706 75.7955C450.224 74.8411 452.511 73.4423 454.438 71.6789C456.364 69.9154 457.893 67.8219 458.935 65.5179C459.978 63.2138 460.515 60.7444 460.515 58.2505V29.7941C460.512 24.7589 458.325 19.9307 454.434 16.3711C450.543 12.8115 445.267 10.8119 439.766 10.8119Z" fill="#D4CCFF"/>
<path d="M368.872 35.6842C368.875 36.8703 368.612 38.0445 368.099 39.1339C367.568 40.2684 366.892 41.3416 366.086 42.3313C365.244 43.3738 364.322 44.3607 363.328 45.2846C362.289 46.227 361.278 47.1273 360.276 47.9771C359.761 48.4147 359.201 48.9111 358.603 49.4664C358.005 50.0218 357.417 50.5771 356.866 51.1493C356.314 51.7214 355.827 52.2431 355.395 52.7311C355.057 53.0888 354.787 53.4954 354.595 53.9343H369.984V59.8242H346.1C346.027 59.3871 345.993 58.9453 345.999 58.5032V57.3673C345.982 55.9483 346.253 54.5388 346.799 53.2107C347.327 51.9595 348.031 50.777 348.895 49.6936C349.763 48.5964 350.738 47.5741 351.809 46.6393C352.894 45.6969 353.97 44.7517 355.036 43.8038L357.362 41.7507C358.036 41.1543 358.672 40.5221 359.265 39.8575C359.78 39.2956 360.215 38.6765 360.561 38.0149C360.863 37.4339 361.02 36.7987 361.021 36.1554C361.086 35.6068 361.002 35.0521 360.778 34.54C360.553 34.028 360.195 33.5743 359.734 33.2188C358.792 32.6352 357.671 32.3406 356.535 32.3774C355.645 32.3711 354.761 32.5078 353.924 32.7813C353.155 33.0326 352.414 33.348 351.708 33.7237C351.1 34.0484 350.52 34.414 349.971 34.8175C349.493 35.1793 349.134 35.4654 348.895 35.6589L345.08 30.7703C346.644 29.4514 348.433 28.3744 350.375 27.5814C352.398 26.7481 354.592 26.3206 356.81 26.3277C358.645 26.2964 360.473 26.5205 362.234 26.9924C363.612 27.3647 364.888 28.0015 365.976 28.8603C366.957 29.6537 367.703 30.6609 368.145 31.7884C368.64 33.0368 368.886 34.3563 368.872 35.6842Z" fill="#380F8F"/>
<path d="M396.56 27.0846V46.7483H400.384V52.512H396.56V59.8322H389.021V52.512H373.623V47.3625C374.377 45.977 375.324 44.4092 376.464 42.6591C377.594 40.9089 378.863 39.1167 380.251 37.274C381.639 35.4314 383.119 33.6223 384.673 31.8638C386.111 30.1967 387.645 28.6014 389.27 27.0846H396.56ZM389.021 35.6838C387.679 37.2881 386.251 39.0382 384.737 40.9342C383.268 42.759 381.987 44.7055 380.913 46.7483H389.021V35.6838Z" fill="#380F8F"/>
<path d="M406.343 63.8796H400.68L416.115 23.4331H421.677L406.343 63.8796Z" fill="#380F8F"/>
<path d="M428.24 59.8326C428.466 57.4134 428.896 55.0138 429.527 52.6554C430.177 50.1736 430.979 47.7269 431.927 45.3268C432.838 43.0114 433.897 40.7469 435.098 38.545C436.134 36.6309 437.326 34.7914 438.665 33.0422H423.129V27.043H448.161V32.1419C446.79 33.5683 445.56 35.1029 444.484 36.7276C443.055 38.8545 441.795 41.0731 440.715 43.3663C439.479 45.9505 438.441 48.6101 437.608 51.326C436.744 54.1018 436.202 56.953 435.99 59.8326H428.24Z" fill="#380F8F"/>
<path d="M246.861 37.2491H216.395C210.338 37.2491 205.428 41.7433 205.428 47.2871V67.0013C205.428 72.5452 210.338 77.0393 216.395 77.0393H246.861C252.918 77.0393 257.828 72.5452 257.828 67.0013V47.2871C257.828 41.7433 252.918 37.2491 246.861 37.2491Z" fill="#FC8E53"/>
<path d="M255.492 41.1034L241.243 54.1452C240.995 54.3724 240.738 54.5912 240.48 54.7931C238.014 56.7269 234.874 57.7898 231.627 57.7898C228.38 57.7898 225.24 56.7269 222.774 54.7931C222.517 54.5912 222.26 54.3724 222.011 54.1452L221 53.2281L207.771 41.1034C208.269 40.5095 208.84 39.9703 209.472 39.4963L222.747 51.6294L223.758 52.555C223.998 52.7828 224.256 52.9937 224.53 53.186C226.526 54.7015 229.038 55.5309 231.632 55.5309C234.225 55.5309 236.737 54.7015 238.733 53.186C239.004 52.9863 239.262 52.7728 239.506 52.5466L240.517 51.6378L253.773 39.4879C254.412 39.9641 254.989 40.5062 255.492 41.1034Z" fill="white"/>
<path d="M223.732 52.563C223.972 52.7908 224.23 53.0017 224.504 53.1941L222.813 54.8011L205.99 70.1569C205.681 69.2877 205.499 68.3853 205.447 67.4728L220.974 53.2361L222.721 51.6375L223.732 52.563Z" fill="white"/>
<path d="M257.803 67.4723C257.758 68.3849 257.579 69.2879 257.269 70.1564L240.483 54.8007L238.736 53.202C239.007 53.0022 239.264 52.7887 239.509 52.5625L240.52 51.6538L242.248 53.2357L257.803 67.4723Z" fill="white"/>
<path d="M181.442 91.5866C181.443 88.9384 180.717 86.3325 179.33 84.0084C177.943 81.6844 175.94 79.7169 173.505 78.2868C171.07 76.8568 168.281 76.0101 165.395 75.8248C162.509 75.6394 159.618 76.1212 156.988 77.226C154.359 78.3307 152.075 80.0229 150.347 82.1469C148.619 84.2709 147.502 86.7584 147.1 89.3808C146.697 92.0031 147.021 94.6761 148.042 97.1538C149.064 99.6315 150.749 101.834 152.944 103.56C154.298 104.61 155.387 105.917 156.136 107.39C156.885 108.863 157.276 110.467 157.283 112.092H171.072C171.084 110.462 171.479 108.855 172.231 107.378C172.983 105.901 174.074 104.59 175.43 103.535C177.315 102.058 178.829 100.226 179.866 98.1636C180.904 96.1011 181.442 93.8573 181.442 91.5866Z" fill="#DE50FC"/>
<path d="M171.185 113.11H157.23V115.096H171.185V113.11Z" fill="#380F8F"/>
<path d="M167.398 119.775H160.963C159.959 119.775 158.995 119.409 158.285 118.759C157.575 118.109 157.176 117.227 157.176 116.308H171.131C171.131 117.219 170.739 118.093 170.041 118.742C169.343 119.39 168.393 119.761 167.398 119.775Z" fill="#380F8F"/>
<path d="M117.212 186.01C112.119 186.01 110.106 187.936 110.106 192.076C110.106 192.455 109.315 192.455 109.315 192.076C109.315 187.936 107.707 186.01 102.218 186.01C101.805 186.01 101.805 185.286 102.218 185.286C107.881 185.286 109.315 182.888 109.315 179.228C109.315 178.849 110.106 178.849 110.106 179.228C110.106 183.586 112.037 185.286 117.212 185.286C117.617 185.286 117.617 186.01 117.212 186.01Z" fill="#D4CCFF"/>
<path d="M229.395 161.424C223.134 161.424 220.652 163.797 220.652 168.887C220.652 169.359 219.733 169.359 219.733 168.887C219.733 163.797 217.747 161.424 210.991 161.424C210.485 161.424 210.485 160.532 210.991 160.532C217.959 160.532 219.733 157.579 219.733 153.077C219.733 152.606 220.652 152.606 220.652 153.077C220.652 158.437 223.024 160.532 229.395 160.532C229.9 160.524 229.9 161.424 229.395 161.424Z" fill="#FBF3FE"/>
<path d="M186.766 84.2161C179.908 84.2161 177.196 86.8077 177.196 92.3862C177.196 92.8994 176.13 92.8994 176.13 92.3862C176.13 86.8077 173.961 84.2161 166.56 84.2161C166.009 84.2161 166.009 83.2401 166.56 83.2401C174.19 83.2401 176.13 80.0091 176.13 75.0784C176.13 74.5652 177.196 74.5652 177.196 75.0784C177.196 80.9683 179.789 83.2401 186.766 83.2401C187.318 83.2401 187.318 84.2161 186.766 84.2161Z" fill="#FBF3FE"/>
</svg>
